<svg viewBox="0 0 58 42">
  <path fill="#e42527" d="M3.57,1.58a1.89,1.89,0,1,0,0,.55C16.51,2.25,27.12,10,28,19.64a24.49,24.49,0,0,0-4.13-5.74,23,23,0,0,0-17-7l-.1,0a1.78,1.78,0,1,0,0,.52h.09a22.47,22.47,0,0,1,16.6,6.83,23.88,23.88,0,0,1,3.9,5.34,35.22,35.22,0,0,0-4.14-3.2c-3-2-7.71-4.33-13-4.34a1.78,1.78,0,1,0,0,.55c7.88,0,14.57,5.4,17,7.59-2.66-.95-9-3.06-13.77-3.15A1.78,1.78,0,1,0,11.61,19a1.83,1.83,0,0,0,1.73-1.42c4.7.08,11,2.21,13.65,3.08H17.8A1.75,1.75,0,0,0,16,19.12a1.81,1.81,0,0,0-1.78,1.81,1.77,1.77,0,0,0,3.52.29h9.08a42.85,42.85,0,0,1-13.52,3.12A1.77,1.77,0,0,0,11.61,23a1.8,1.8,0,1,0,1.77,2c4.76-.1,11.11-2.2,13.77-3.15-2.4,2.19-9.09,7.58-17,7.59a1.79,1.79,0,1,0,0,.55c5.28,0,10-2.36,13-4.34a33.75,33.75,0,0,0,4.19-3.25,23.92,23.92,0,0,1-3.93,5.42A22.49,22.49,0,0,1,6.81,34.6l-.08,0a1.77,1.77,0,1,0,0,.52l.1,0a23,23,0,0,0,17-7,24.38,24.38,0,0,0,4.11-5.68C26.87,32,16.32,39.55,3.46,39.64a1.78,1.78,0,0,0-1.68-1.21,1.79,1.79,0,1,0,1.78,1.79s0,0,0,0c13.73-.13,24.76-8.62,25.05-19.09v-.22c0-10.56-11.24-19.17-25.07-19.3M3,2a1.22,1.22,0,0,1-1.2,1A1.23,1.23,0,1,1,3,1.71a.23.23,0,0,0,0,.14A.51.51,0,0,0,3,2M5,8.43A1.23,1.23,0,1,1,6.19,7.2,1.23,1.23,0,0,1,5,8.43m3.46,5.14a1.23,1.23,0,1,1,1.23-1.23,1.23,1.23,0,0,1-1.23,1.23m4.39,3.88a1.24,1.24,0,1,1,0-.27.29.29,0,0,0,0,.16.22.22,0,0,0,0,.11M16,22.18A1.23,1.23,0,1,1,17.26,21,1.22,1.22,0,0,1,16,22.18M11.61,26a1.23,1.23,0,1,1,1.2-1.47.2.2,0,0,0,0,.11.28.28,0,0,0,0,.15A1.23,1.23,0,0,1,11.61,26M8.42,30.89a1.23,1.23,0,1,1,1.23-1.23,1.23,1.23,0,0,1-1.23,1.23M5,36A1.23,1.23,0,1,1,6.19,34.8,1.23,1.23,0,0,1,5,36M1.78,41.44a1.23,1.23,0,1,1,0-2.45,1.24,1.24,0,0,1,1.18.9v0a.31.31,0,0,0,0,.13c0,.05,0,.11,0,.17a1.22,1.22,0,0,1-1.22,1.22"></path>
  <path fill="currentColor" d="M29.5,21.1c.29,10.47,11.24,19,25,19.09,0,0,0,0,0,0a1.73,1.73,0,1,0,.08-.58C41.68,39.55,31.13,32,30.07,22.47a24.58,24.58,0,0,0,4.1,5.68,23,23,0,0,0,17,7l.1,0a1.79,1.79,0,1,0,0-.52l-.08,0a22.47,22.47,0,0,1-16.62-6.84,24,24,0,0,1-3.94-5.42,34,34,0,0,0,4.2,3.25c3,2,7.71,4.34,13,4.34a1.78,1.78,0,1,0,0-.55c-7.89,0-14.57-5.4-17-7.59,2.66.95,9,3.05,13.77,3.14a1.77,1.77,0,0,0,3.54-.15,1.77,1.77,0,0,0-3.5-.44,42.85,42.85,0,0,1-13.52-3.12h9.07a1.77,1.77,0,0,0,3.52-.29A1.79,1.79,0,0,0,42,19.13a1.75,1.75,0,0,0-1.77,1.52H31c2.61-.87,9-3,13.65-3.08A1.84,1.84,0,0,0,46.39,19a1.79,1.79,0,1,0-1.77-1.94c-4.76.1-11.11,2.2-13.77,3.15,2.4-2.19,9.08-7.58,17-7.59a1.79,1.79,0,1,0,0-.55c-5.28,0-10,2.36-13,4.34a35.48,35.48,0,0,0-4.15,3.2,24.55,24.55,0,0,1,3.9-5.34A22.52,22.52,0,0,1,51.19,7.45l.08,0a1.78,1.78,0,1,0,0-.52l-.09,0a23,23,0,0,0-17,7A24.9,24.9,0,0,0,30,19.64C30.88,10,41.49,2.25,54.48,2.13A1.78,1.78,0,1,0,56.22,0a1.75,1.75,0,0,0-1.73,1.58c-13.83.12-25,8.74-25,19.3ZM55,2a.28.28,0,0,0,0-.13.23.23,0,0,0,0-.14A1.21,1.21,0,1,1,55,2M51.81,7.2A1.23,1.23,0,1,1,53,8.43,1.23,1.23,0,0,1,51.81,7.2m-3.46,5.14a1.23,1.23,0,1,1,1.22,1.23,1.23,1.23,0,0,1-1.22-1.23M40.73,21A1.23,1.23,0,1,1,42,22.18,1.23,1.23,0,0,1,40.73,21m7.62,8.71a1.23,1.23,0,1,1,1.22,1.23,1.23,1.23,0,0,1-1.22-1.23m3.46,5.14A1.23,1.23,0,1,1,53,36a1.23,1.23,0,0,1-1.22-1.23M55,40.22a.88.88,0,0,1,0-.17.31.31,0,0,0,0-.13v0a1.21,1.21,0,1,1,0,.33m-9.8-22.78a.36.36,0,0,0,0-.1.3.3,0,0,0-.05-.16,1.23,1.23,0,1,1,1.23,1.25,1.21,1.21,0,0,1-1.2-1m0,7.38a.3.3,0,0,0,.05-.15.36.36,0,0,0,0-.11,1.21,1.21,0,0,1,1.2-1,1.23,1.23,0,0,1,0,2.46,1.24,1.24,0,0,1-1.23-1.21"></path>
</svg>