<svg viewBox="0 0 36 36" fill="currentColor">
  <path d="M22.2563 26.4943v-.865h.9504l.3204-.8436H22.2563v-.865h1.5965L24.9527 21h1.2014l1.0572 2.9207H28.701v.865H27.5263l.3097.8436h.865v.865h-.5553L29 28.8436H27.836l-.7956-2.3493H23.9382l-.849 2.3493H22l.881-2.3493h-.6247Zm4.4424-.865-.2937-.8436H24.5469l-.3043.8436h2.4561Zm-1.8368-1.7086h1.2495L25.508 22.164Zm-9.9322 1.5441C14.9297 31.274 19.6557 36 25.4649 36 31.274 36 36 31.274 36 25.4648c0-5.8091-4.726-10.5351-10.5351-10.5351-5.8092 0-10.5352 4.726-10.5352 10.5351Zm1.5469.0001c0-4.9561 4.0321-8.9883 8.9883-8.9883s8.9882 4.0321 8.9882 8.9883-4.032 8.9882-8.9882 8.9882-8.9883-4.032-8.9883-8.9882Z" />
  <path d="M7.1172 35.7734c.151.1511.349.2266.5469.2266.198 0 .3959-.0755.5469-.2266l6.8906-6.8906c.2212-.2212.2874-.5539.1677-.8429-.1198-.289-.4018-.4774-.7146-.4774H10.7344V7.6641c0-.4272-.3463-.7734-.7734-.7734H5.3672c-.4272 0-.7734.3463-.7734.7734V27.5625H.7735c-.3128 0-.5948.1884-.7146.4774-.1197.2891-.0535.6217.1677.8429l6.8906 6.8906Zm.5469-1.6406-5.0233-5.0234H5.3672c.4272 0 .7734-.3463.7734-.7735V8.4375h3.047V28.3359c0 .4272.3463.7735.7734.7735h2.7265L7.6641 34.1328ZM19.9219 18V7.6641c0-.4272-.3463-.7734-.7734-.7734H16.422l5.0234-5.0234 5.0234 5.0234H23.7423c-.4271 0-.7734.3463-.7734.7734v8.1908h1.5469V8.4375H28.336c.3128 0 .5948-.1884.7146-.4774.1197-.289.0535-.6217-.1677-.8429L21.9923.2265c-.3022-.3021-.7917-.3021-1.0939 0L14.0078 7.1172c-.2211.2212-.2874.5539-.1677.8429.1197.289.4018.4774.7146.4774H18.375V18h1.5469Z" />
</svg>
