<svg viewBox="0 0 37 37" fill="currentColor">
  <path
    fill-rule="evenodd"
    clip-rule="evenodd"
    d="M15.8659 2.12465C13.0559 -0.68543 8.48414 -0.68543 5.67435 2.12465L5.42165 2.37738C4.05184 3.74733 3.88885 5.87341 4.93129 7.42416L3.66034 8.71359C3.06121 9.3215 2.75887 10.158 2.83087 11.0085C2.90294 11.859 3.34169 12.6327 4.03454 13.1311L8.24842 16.1624C6.88535 17.2661 5.9593 18.5675 5.52896 19.9719L2.93789 19.54L1.66996 16.3698C1.51133 15.9731 1.06085 15.7804 0.664641 15.9389C0.268013 16.0976 0.075078 16.5477 0.233771 16.9444L1.66342 20.5188C1.76375 20.7697 1.98777 20.95 2.25432 20.9945L5.26102 21.4956C5.25595 21.5981 5.2534 21.701 5.2534 21.8041C5.2534 22.7085 5.44828 23.699 5.80485 24.7147L2.96897 25.1873C2.74545 25.2245 2.54949 25.358 2.43291 25.5523L0.288548 29.1266C0.0688243 29.4929 0.18751 29.968 0.553834 30.1879C0.678426 30.2626 0.815604 30.2982 0.951025 30.2982C1.21378 30.2982 1.47 30.1642 1.61498 29.9225L3.57562 26.6546L6.42256 26.1801C7.14733 27.657 8.17441 29.1259 9.40472 30.4052L5.91763 30.9034C5.68708 30.9364 5.4836 31.0715 5.36379 31.2712L3.21942 34.8455C2.9997 35.2118 3.11839 35.6869 3.48471 35.9068C3.60923 35.9815 3.74641 36.0171 3.88183 36.0171C4.14458 36.0171 4.4008 35.8831 4.54578 35.6414L6.50073 32.3828L10.2568 31.8462V32.384C10.2568 34.3872 11.8865 36.0169 13.8894 36.0169H22.4669C24.4699 36.0169 26.0995 34.3872 26.0995 32.384V31.8461L29.8558 32.3828L31.8107 35.6414C31.9557 35.8832 32.2119 36.0171 32.4747 36.0171C32.6101 36.0171 32.7473 35.9815 32.8719 35.9067C33.2381 35.6869 33.3569 35.2118 33.1372 34.8455L30.9928 31.2712C30.873 31.0715 30.6695 30.9364 30.439 30.9034L26.9516 30.4052C28.182 29.1259 29.2091 27.6569 29.9338 26.1799L32.7808 26.6545L34.7414 29.9226C34.8864 30.1643 35.1426 30.2982 35.4054 30.2982C35.5407 30.2982 35.678 30.2626 35.8026 30.1877C36.1688 29.9679 36.2876 29.4928 36.0678 29.1265L33.9235 25.5522C33.8069 25.3579 33.6109 25.2245 33.3874 25.1872L30.5515 24.7145C30.9081 23.6989 31.1029 22.7085 31.1029 21.8041C31.1029 21.701 31.1004 21.5982 31.0953 21.4957L34.1022 20.9945C34.3687 20.95 34.5928 20.7697 34.6931 20.5188L36.1227 16.9445C36.2814 16.5478 36.0884 16.0976 35.6918 15.939C35.2952 15.7805 34.8451 15.9732 34.6865 16.3699L33.4186 19.5401L30.8274 19.972C30.3971 18.5676 29.471 17.266 28.1079 16.1623L32.3218 13.1311C33.0147 12.6326 33.4534 11.859 33.5255 11.0084C33.5976 10.158 33.2953 9.32154 32.6961 8.71363L31.4251 7.42413C32.4675 5.87346 32.3045 3.74737 30.9347 2.37742L30.682 2.12462C27.8721 -0.685456 23.3003 -0.685386 20.4905 2.12462C20.2495 2.36568 20.1947 2.73604 20.3555 3.03659C20.5162 3.33706 20.8548 3.49682 21.189 3.43009L21.6134 3.34522C22.5445 3.15887 23.4982 3.38973 24.2354 3.9655L24.1674 4.30584C23.8971 5.65737 24.3176 7.04602 25.292 8.02057C26.0698 8.79844 27.0916 9.18744 28.1133 9.18744C28.8876 9.18744 29.6617 8.96355 30.3299 8.51674L31.5944 9.79957C31.8759 10.0852 32.018 10.4782 31.9841 10.8778C31.9503 11.2775 31.7442 11.641 31.4186 11.8752L26.7631 15.2241C25.4459 14.4317 23.9226 13.8395 22.2787 13.4703L23.1301 12.0511C23.3499 11.6847 23.2311 11.2097 22.8649 10.9898C22.4985 10.77 22.0234 10.889 21.8037 11.2552L20.6475 13.1824C19.842 13.0779 19.0161 13.0242 18.1782 13.0242C17.3404 13.0242 16.5144 13.0779 15.709 13.1824L14.5527 11.2552C14.333 10.8889 13.8578 10.77 13.4915 10.9898C13.1252 11.2097 13.0065 11.6848 13.2263 12.0511L14.0777 13.4703C12.4338 13.8395 10.9104 14.4317 9.59332 15.2241L4.93776 11.8752C4.61222 11.641 4.40606 11.2776 4.37225 10.8779C4.33843 10.4783 4.48045 10.0853 4.76198 9.79959L6.0264 8.51677C6.69457 8.96357 7.46856 9.1874 8.24297 9.1874C9.2646 9.1874 10.2865 8.7984 11.0643 8.02053C12.0388 7.04591 12.4593 5.65725 12.1889 4.30573L12.1209 3.96538C12.8581 3.38976 13.8118 3.15876 14.7429 3.3451L15.1673 3.42998C15.5015 3.49671 15.8401 3.33702 16.0008 3.03647C16.1617 2.736 16.1069 2.36563 15.8659 2.12465ZM9.97286 16.8141C9.98578 16.806 9.9985 16.7976 10.011 16.7888C10.0111 16.7887 10.0112 16.7887 10.0113 16.7886C12.1815 15.3587 15.0818 14.5712 18.1781 14.5712C21.2743 14.5712 24.1747 15.3587 26.3449 16.7886C26.3461 16.7894 26.3474 16.7903 26.3486 16.7911C26.359 16.7983 26.3695 16.8052 26.3801 16.8119C28.1155 17.9652 29.1898 19.4129 29.4777 20.9589C29.4787 20.9661 29.4798 20.9734 29.481 20.9806C29.4833 20.9942 29.4859 21.0077 29.4888 21.021C29.5334 21.2796 29.556 21.541 29.556 21.8041C29.556 22.7423 29.288 23.8169 28.8133 24.9181C28.7792 24.9743 28.752 25.0354 28.7328 25.1007C27.9018 26.9451 26.5029 28.8471 24.8213 30.295C24.6506 30.442 24.5525 30.656 24.5525 30.8812V32.384C24.5525 33.5342 23.6168 34.4699 22.4668 34.4699H13.8894C12.7393 34.4699 11.8036 33.5342 11.8036 32.384V30.9784C11.8041 30.9631 11.8041 30.9476 11.8036 30.9321V30.8812C11.8036 30.656 11.7055 30.442 11.5348 30.295C9.85365 28.8473 8.45495 26.9458 7.62385 25.1018C7.60458 25.0357 7.57698 24.9739 7.54243 24.9171C7.06797 23.8162 6.80018 22.742 6.80018 21.8041C6.80018 21.5426 6.82248 21.2828 6.86651 21.0257C6.8699 21.0108 6.87287 20.9958 6.87541 20.9805C6.87688 20.9717 6.8782 20.9628 6.87937 20.954C7.16841 19.4108 8.24121 17.9658 9.97286 16.8141ZM10.7287 3.13563C10.5458 3.31853 10.4664 3.58068 10.5172 3.83425L10.6722 4.60923C10.8408 5.45235 10.5785 6.31868 9.97052 6.92666C9.01801 7.87934 7.46799 7.87934 6.51548 6.92666C6.05409 6.46522 5.79985 5.85155 5.79985 5.19892C5.79985 4.5463 6.05402 3.93269 6.51548 3.47119L6.76818 3.21847C7.87151 2.11502 9.32084 1.56323 10.7701 1.56323C11.4483 1.56323 12.1263 1.68397 12.769 1.92558C12.0101 2.14723 11.3067 2.55754 10.7287 3.13563ZM25.6844 4.60921C25.5159 5.4524 25.7781 6.31873 26.3861 6.9267C27.3386 7.87931 28.8887 7.87931 29.8411 6.9267C30.3025 6.4652 30.5567 5.8516 30.5567 5.19897C30.5567 4.54641 30.3025 3.93274 29.8411 3.47131L29.5884 3.21851C27.9688 1.59886 25.6036 1.16809 23.5875 1.92563C24.3465 2.1472 25.0498 2.55751 25.6279 3.13561C25.8108 3.31843 25.8901 3.58065 25.8394 3.83422L25.6844 4.60921ZM18.1782 23.1495C17.751 23.1495 17.4048 22.8031 17.4048 22.376V19.5165C17.4048 19.0893 17.751 18.743 18.1782 18.743C18.6053 18.743 18.9516 19.0893 18.9516 19.5165V22.376C18.9516 22.8031 18.6053 23.1495 18.1782 23.1495ZM21.2881 25.1393C21.4272 25.2437 21.59 25.2941 21.7515 25.2941C21.9867 25.2941 22.2189 25.1873 22.3708 24.9846L24.5152 22.1252C24.7715 21.7833 24.7022 21.2986 24.3605 21.0423C24.0188 20.7859 23.534 20.8552 23.2778 21.197L21.1334 24.0564C20.877 24.3981 20.9464 24.883 21.2881 25.1393ZM14.6049 25.2941C14.3697 25.2941 14.1375 25.1873 13.9855 24.9847L11.8411 22.1253C11.5849 21.7835 11.6541 21.2987 11.9958 21.0424C12.3376 20.786 12.8223 20.8553 13.0786 21.1971L15.2229 24.0565C15.4792 24.3983 15.41 24.8831 15.0682 25.1394C14.9292 25.2437 14.7663 25.2941 14.6049 25.2941Z"
  />
</svg>
