<svg viewBox="0 0 240 240" fill="currentColor">
  <path d="m79 58 41 81 41-81m-86-5-37-16 40-19h84l40 19-37 16m-41 88 40-78 27 56m-75 22-40-78-27 56m118-61 38-17-10 75m-122-58-38-17 10 75m-15-73-30 43 40 29m170-72 30 43-40 29m-78 31 69-22-69 98m-4-76-69-22 69 98m-112-126 36 26 47 66m145-92-36 26-47 66m-31-68-26-52 52 0m19-25 17-6-20-9h-84l-20 9 17 6m89 38-24 46 39-13m-118 0 15-33 24 46m91-37 5-36-19 8m-128 28-5-36 19 8m-34 36-19-14 15-21m205 21-15-21-4 35m-80 96 39-54-39 13m-22 41-39-54 39 13" />
</svg>
