<svg viewBox="0 0 36 36" fill="currentColor">
  <path
    fill-rule="evenodd"
    clip-rule="evenodd"
    d="M7.8892 3.92295C8.24295 4.82897 8.44303 5.7482 8.48895 6.67346C9.71847 5.47549 11.1605 4.47405 12.7688 3.69605C10.7033 2.05918 9.18772 1.65837 6.5773 1.56987C7.05676 2.21456 7.52898 3.00045 7.8892 3.92295ZM8.12406 9.43827C8.11465 9.452 8.10483 9.46538 8.09461 9.4784C5.49886 13.0292 3.74166 19.13 7.79558 29.0922H8.52381C8.73524 22.3222 10.4519 18.0529 13.8999 15.6911C15.3811 14.6766 17.1296 14.0716 19.0151 13.7145C19.0273 13.711 19.0397 13.7077 19.0521 13.7047C19.0909 13.6955 19.1296 13.6893 19.1682 13.6861C21.5842 13.2473 24.2177 13.2053 26.7978 13.2238C28.7631 13.2377 30.8838 13.2474 33.0742 13.2238C33.8347 13.2156 34.4534 12.6006 34.4534 11.8529C34.4534 11.0969 33.8385 10.4819 33.0825 10.4819H32.2864C31.9067 10.4819 31.5832 10.2063 31.5228 9.83151C31.0844 7.11055 28.8652 4.97467 25.4343 3.97145C20.5048 2.53004 13.2469 3.61117 8.91313 8.46632C8.64532 8.76638 8.3807 9.08995 8.12406 9.43827ZM10.0664 29.2533C10.3331 19.8928 13.5119 16.5217 18.6836 15.3537C19.5875 18.0634 21.8352 20.2444 24.8259 21.2691C24.9078 21.2972 24.9924 21.3109 25.0766 21.3109C25.2358 21.3109 25.3934 21.2617 25.5263 21.1667C25.7295 21.0216 25.8501 20.7872 25.8501 20.5374V14.7673C26.1587 14.7669 26.4709 14.7681 26.7865 14.7703C28.7591 14.7843 30.888 14.7939 33.0905 14.7703C34.6948 14.7531 36 13.4441 36 11.8525C36 10.2437 34.6911 8.93472 33.0822 8.93472H32.9163C32.1607 5.91585 29.629 3.58619 25.8682 2.48643C22.9679 1.63846 19.6135 1.60358 16.4225 2.3882C15.718 2.56144 15.0335 2.77097 14.3717 3.01525C11.1788 0.279953 9.06005 0 4.84768 0C4.53197 0 4.24798 0.191883 4.13014 0.484664C4.01229 0.777586 4.08436 1.1127 4.31203 1.3313C5.11434 2.10152 7.63611 4.88482 6.77028 8.66806C5.15622 10.9141 4.20497 13.5706 3.93765 16.5865C3.60416 20.35 4.35995 24.5996 6.18471 29.2308C4.91992 29.4389 3.87501 29.8859 2.97402 30.5955C1.80036 31.5199 0.900634 32.8583 0.0568806 34.9353C-0.0400104 35.1738 -0.0118853 35.4448 0.131834 35.6583C0.275553 35.8718 0.516093 35.9998 0.773438 35.9998H3.70379C5.17502 35.9998 6.58549 35.3695 7.5736 34.2706C7.70888 34.1201 7.85928 34.053 8.06157 34.053H8.06164C8.26393 34.053 8.41447 34.1201 8.54968 34.2705C9.53786 35.3695 10.9483 35.9998 12.4195 35.9998H15.3499C15.6073 35.9998 15.8478 35.8718 15.9915 35.6583C16.1352 35.4448 16.1634 35.1738 16.0665 34.9353C15.2227 32.8583 14.323 31.5199 13.1493 30.5955C12.2785 29.9098 11.2727 29.47 10.0664 29.2533ZM20.2253 15.0752C21.4893 14.8973 22.8522 14.8151 24.3032 14.7836V19.3868C22.3629 18.4554 20.9074 16.9187 20.2253 15.0752ZM14.16 34.453H12.4196C11.3866 34.453 10.3954 34.0096 9.70016 33.2363C9.27069 32.7587 8.70418 32.5062 8.06187 32.5062H8.06166C7.41942 32.5062 6.85298 32.7587 6.42344 33.2363C5.72826 34.0096 4.73706 34.453 3.70395 34.453H1.96364C3.33066 31.6649 5.01374 30.6397 8.01096 30.6397H8.11896C11.1102 30.6397 12.7931 31.6651 14.16 34.453ZM25.9342 9.05199C24.8229 9.03202 24.9921 7.32231 26.0854 7.52059C26.9813 7.67605 26.8431 9.07463 25.9342 9.05199Z"
  />
</svg>