<svg viewBox="0 0 41 33" fill="currentColor">
  <path
    fill-rule="evenodd"
    clip-rule="evenodd"
    d="M39.9606 16.1126C40.0491 16.3071 40.0617 16.5356 39.9879 16.7366C39.9798 16.7602 39.9703 16.7831 39.9606 16.8059C39.8853 16.9702 38.075 20.8754 34.4496 24.8316C32.3089 27.1676 29.9778 29.0318 27.5208 30.3724C24.4244 32.0619 21.1245 32.9185 17.7128 32.9185C15.0111 32.9185 12.4968 32.4704 10.2398 31.5868C9.9929 31.4901 9.80538 31.2868 9.7318 31.036C9.6583 30.7851 9.70693 30.515 9.86356 30.3041C10.7096 29.1655 12.1228 26.7671 12.0832 23.4958C12.0705 22.4529 11.9122 21.429 11.6111 20.4351C11.1617 21.0866 10.6007 21.6637 9.94293 22.1457C8.68937 23.0643 7.19786 23.5498 5.6298 23.5498H0.860156C0.385115 23.5498 0 23.1715 0 22.705C0 20.2386 1.22087 17.9052 3.22762 16.4593C1.2208 15.0132 0 12.6799 0 10.2134C0 9.74688 0.385115 9.36865 0.860156 9.36865H5.62987C7.19802 9.36865 8.68945 9.85417 9.94301 10.7728C10.6009 11.2548 11.1618 11.8319 11.6112 12.4834C11.9123 11.4895 12.0706 10.4656 12.0832 9.42272C12.1229 6.15136 10.7096 3.75296 9.86364 2.61443C9.70693 2.40354 9.6583 2.13337 9.73188 1.88255C9.80546 1.63173 9.99298 1.42836 10.2399 1.33175C12.4969 0.448039 15.0112 0 17.7129 0C21.1246 0 24.4244 0.856681 27.5208 2.54608C29.9778 3.88667 32.309 5.75086 34.4497 8.0869C38.0752 12.0431 39.8853 15.9483 39.9606 16.1126ZM17.7128 31.229C18.9383 31.229 20.1415 31.111 21.321 30.8759C17.917 26.817 16.0576 21.7501 16.0576 16.4593C16.0576 11.1684 17.917 6.10151 21.321 2.04267C20.1415 1.8075 18.9382 1.68956 17.7127 1.68956C15.6267 1.68956 13.6696 1.9774 11.8793 2.54632C12.7952 4.04027 13.84 6.41617 13.8032 9.44277C13.7801 11.3547 13.3324 13.2093 12.4727 14.9553C12.3192 15.2672 11.9878 15.4552 11.6355 15.4301C11.2837 15.4047 10.9833 15.171 10.8777 14.8404C10.1551 12.5782 8.04606 11.0582 5.62981 11.0582H1.78155C2.04155 12.8452 3.11456 14.4604 4.71093 15.4011L5.27738 15.7348C5.53652 15.8875 5.69502 16.1625 5.69502 16.4593C5.69502 16.756 5.53644 17.031 5.27738 17.1837L4.71093 17.5175C3.11464 18.4582 2.04155 20.0733 1.78155 21.8603H5.62989C8.04614 21.8603 10.1552 20.3403 10.8778 18.0781C10.9833 17.7475 11.2838 17.5138 11.6356 17.4884C11.9872 17.4635 12.3192 17.6513 12.4728 17.9632C13.3325 19.7093 13.7802 21.5639 13.8033 23.4757C13.84 26.5024 12.7953 28.8782 11.8794 30.3722C13.6696 30.9411 15.6268 31.229 17.7128 31.229ZM26.1816 29.1755C25.1988 29.6764 24.1959 30.0861 23.1737 30.4041C20.1941 27.1099 18.3641 23.0254 17.897 18.6825C18.7721 19.4075 19.9371 20.1341 21.2643 20.3574C22.0138 23.6803 23.7321 26.7569 26.1816 29.1755ZM30.8536 25.9733C29.8391 26.8606 28.7976 27.6364 27.7305 28.3001C25.4215 26.1442 23.7792 23.3611 23.0255 20.3359C24.4491 20.0623 25.6788 19.2186 26.5534 18.4422C26.77 19.7675 27.2018 21.0558 27.8327 22.2423C28.5837 23.6548 29.6175 24.929 30.8536 25.9733ZM28.1123 16.4747C28.1171 19.6865 29.5985 22.7494 32.1098 24.8042C32.4561 24.4619 32.799 24.1061 33.1385 23.7367C35.4263 21.2481 36.9778 18.7331 37.7715 17.304H35.9963C35.5213 17.304 35.1362 16.9258 35.1362 16.4593C35.1362 15.9927 35.5213 15.6145 35.9963 15.6145H37.7715C36.9777 14.1856 35.4262 11.6706 33.1384 9.18181C32.7989 8.81244 32.4559 8.45659 32.1096 8.1143C29.5984 10.1691 28.1171 13.232 28.1123 16.4437C28.1125 16.4541 28.1125 16.4644 28.1123 16.4747ZM27.7304 4.61849C28.7975 5.28214 29.839 6.05792 30.8535 6.94515C29.6174 7.98948 28.5837 9.26369 27.8327 10.6761C27.2018 11.8626 26.77 13.151 26.5534 14.4763C25.6788 13.6999 24.4491 12.8563 23.0256 12.5827C23.7792 9.55751 25.4215 6.77435 27.7304 4.61849ZM23.1737 2.51445C24.1959 2.83249 25.1988 3.24221 26.1816 3.74311C23.7321 6.16172 22.014 9.23828 21.2645 12.5611C19.9372 12.7844 18.7722 13.511 17.897 14.2361C18.3641 9.8932 20.1941 5.80864 23.1737 2.51445ZM18.0303 16.4555C18.7556 17.2531 20.3401 18.7374 22.085 18.7374C23.7201 18.7374 25.3118 17.3738 26.1398 16.4632C25.4139 15.6651 23.8297 14.1812 22.085 14.1812C20.4498 14.1812 18.8582 15.5448 18.0303 16.4555ZM31.8087 15.3257C31.8859 15.3468 31.9635 15.3569 32.0399 15.3569C32.4165 15.3569 32.7622 15.1122 32.868 14.7385L32.8689 14.7356C32.9963 14.2861 32.7283 13.8218 32.2706 13.6966C31.8134 13.5717 31.3383 13.8358 31.2108 14.2853C31.0834 14.7348 31.351 15.2005 31.8087 15.3257Z"
  />
</svg>
