<svg viewBox="0 0 24 28" fill="currentColor">
  <path d="M18.498 4.96158C19.2073 5.42039 19.8737 5.95703 20.4853 6.56859C22.7518 8.83515 24 11.8486 24 15.0539C24 18.2592 22.7517 21.2726 20.4853 23.5391C18.2188 25.8056 15.2053 27.0539 12 27.0539C8.79473 27.0539 5.78128 25.8056 3.51473 23.5392C1.24823 21.2727 0 18.2592 0 15.0539C0 11.8486 1.24823 8.8352 3.51473 6.56865C4.1263 5.95708 4.79266 5.42039 5.50208 4.96164L4.69469 3.56303L4.13919 3.88376C4.04767 3.9366 3.9477 3.96175 3.8491 3.96175C3.6482 3.96175 3.45285 3.8575 3.34517 3.67103C3.18464 3.39309 3.27991 3.03759 3.5579 2.87706L5.6756 1.65441C5.95354 1.49399 6.30905 1.5891 6.46957 1.86714C6.6301 2.14508 6.53483 2.50058 6.25684 2.66111L5.70134 2.98184L6.50788 4.37882C8.01788 3.5998 9.68465 3.15003 11.4188 3.06787V1.16247H10.7774C10.4564 1.16247 10.1961 0.902236 10.1961 0.581235C10.1961 0.260235 10.4564 0 10.7774 0H13.2227C13.5437 0 13.804 0.260235 13.804 0.581235C13.804 0.902236 13.5437 1.16247 13.2227 1.16247H12.5813V3.06787C14.3155 3.14998 15.9822 3.5998 17.4922 4.37876L18.2987 2.98174L17.7432 2.661C17.4652 2.50047 17.37 2.14502 17.5305 1.86703C17.691 1.58904 18.0465 1.49393 18.3244 1.6543L20.4422 2.87706C20.7202 3.03759 20.8154 3.39304 20.6549 3.67103C20.5473 3.8575 20.3519 3.96175 20.151 3.96175C20.0524 3.96175 19.9525 3.9366 19.861 3.88376L19.3054 3.56303L18.498 4.96158ZM1.16252 15.0539C1.16252 21.0297 6.02419 25.8914 12 25.8914C17.9759 25.8914 22.8375 21.0298 22.8375 15.0539C22.8375 9.0781 17.9758 4.21639 12 4.21639C6.02424 4.21639 1.16252 9.07805 1.16252 15.0539ZM12 15.6351H20.1958C20.3499 15.6351 20.4978 15.5739 20.6067 15.4649C20.7158 15.3559 20.777 15.208 20.777 15.0539C20.777 10.2143 16.8397 6.27692 12 6.27692C11.679 6.27692 11.4188 6.53715 11.4188 6.85815V15.0539C11.4188 15.3749 11.679 15.6351 12 15.6351ZM19.5925 14.4727H12.5813V7.46137C16.3175 7.7447 19.3092 10.7364 19.5925 14.4727ZM3.22306 15.0539C3.22306 19.8935 7.1604 23.8309 12 23.8309C13.7665 23.8309 15.4708 23.3061 16.9288 22.3132C18.3511 21.3447 19.4507 19.9961 20.1087 18.4134C20.232 18.1171 20.0915 17.7768 19.7951 17.6536C19.4991 17.5305 19.1586 17.6707 19.0353 17.9672C17.8479 20.8231 15.0864 22.6684 12 22.6684C7.80139 22.6684 4.38553 19.2526 4.38553 15.054C4.38553 11.9901 6.2124 9.23636 9.03969 8.03843C9.33527 7.91326 9.47334 7.57212 9.34811 7.27654C9.22283 6.9809 8.88159 6.84278 8.58617 6.96811C5.32818 8.34849 3.22306 11.5224 3.22306 15.0539Z" />
</svg>
