<svg viewBox="0 0 26 26" fill="currentColor">
  <path d="M11.2245 15.0681C11.7874 15.0681 12.3165 15.2872 12.7144 15.6851C13.4934 16.4643 13.5337 17.7066 12.8355 18.5337L12.7191 18.6607L12.0646 19.3451L14.1559 19.7543L19.8197 15.5245C20.7264 14.8056 22.0498 14.9541 22.7742 15.8581C23.0678 16.2243 23.227 16.6681 23.2359 17.1304C23.9721 16.8855 24.8111 17.0613 25.3854 17.6353C25.8068 18.0566 26.0296 18.6395 25.9968 19.2345C25.9674 19.7676 25.7352 20.2686 25.3527 20.6351L25.2197 20.7522L20.7182 24.5664C20.6922 24.59 20.6656 24.6131 20.6385 24.6355L20.5854 24.6785C20.2085 24.9699 19.7486 25.1479 19.2486 25.1676L19.2427 25.1677L8.87964 25.9983C8.86445 25.9995 8.84932 26.0001 8.83439 26.0001C8.78919 26.0001 8.74507 25.9947 8.7027 25.9844C8.5883 25.9945 8.47171 26.0001 8.35385 26.0001C7.44433 26.0001 6.61132 25.6663 5.97091 25.1147L0.558595 25.1152C0.280948 25.1152 0.0506037 24.9126 0.00731125 24.6472L0 24.5566V20.1314C0 19.8537 0.20258 19.6234 0.46799 19.5801L0.558595 19.5728L5.97286 19.5717C5.98001 19.5655 5.98718 19.5594 5.99438 19.5533L9.72789 15.6918C9.73012 15.6895 9.73231 15.6873 9.73454 15.6851C10.1324 15.2872 10.6615 15.0681 11.2245 15.0681ZM8.35385 19.8052C6.9539 19.8052 5.81498 20.9441 5.81498 22.344C5.81498 23.744 6.9539 24.8829 8.35385 24.8829C9.75379 24.8829 10.8927 23.744 10.8927 22.344C10.8927 20.9441 9.75379 19.8052 8.35385 19.8052ZM12.0099 22.344C12.0099 23.2391 11.6866 24.0601 11.1506 24.6964L17.2696 24.206C16.9905 23.8219 16.8257 23.3495 16.8257 22.8394C16.8257 22.3404 16.9834 21.8775 17.2516 21.498C16.0223 21.2578 14.2648 20.9139 14.2648 20.9139L14.1766 20.9038L14.091 20.8799L11.4215 20.3569C11.7936 20.9293 12.0099 21.6119 12.0099 22.344ZM19.1557 21.6266C18.487 21.6266 17.9429 22.1707 17.9429 22.8394C17.9429 23.5082 18.487 24.0523 19.1557 24.0523C19.8244 24.0523 20.3685 23.5082 20.3685 22.8394C20.3685 22.1707 19.8244 21.6266 19.1557 21.6266ZM5.09429 20.689L1.11719 20.69V23.998L5.09429 23.9991C4.84081 23.5019 4.69779 22.9393 4.69779 22.344C4.69779 21.7487 4.84081 21.1862 5.09429 20.689ZM8.354 22.9024C7.69739 22.9189 7.59781 21.9087 8.24487 21.7964C9.03523 21.6553 9.15609 22.8872 8.354 22.9024ZM23.3007 18.3436L23.2962 18.3471L23.2917 18.3505L20.1043 20.7113C20.8182 21.0308 21.3431 21.6993 21.4608 22.4984L24.5029 19.8951L24.5148 19.8854C24.7356 19.7085 24.8658 19.4555 24.8814 19.173C24.897 18.8907 24.7954 18.6251 24.5955 18.4252C24.2474 18.0773 23.6908 18.0422 23.3007 18.3436ZM20.6116 16.3314L20.5099 16.4029L20.4951 16.4144L15.6354 20.0436L18.3907 20.5827L21.751 17.9462C21.9558 17.7816 22.0844 17.5465 22.1134 17.2841C22.1424 17.0209 22.0675 16.7626 21.9025 16.5568C21.5872 16.1634 21.0307 16.0743 20.6116 16.3314ZM10.6206 16.3904L10.5274 16.472L8.385 18.688L8.54772 18.693C8.74705 18.7035 8.94219 18.73 9.13189 18.7713L9.13573 18.7722L10.7625 19.0904L11.9156 17.8844C11.9184 17.8814 11.9213 17.8785 11.9243 17.8755C12.3103 17.4894 12.3103 16.8611 11.9243 16.475C11.569 16.1196 11.0085 16.0914 10.6206 16.3904ZM16.3004 0C16.5602 0 16.7856 0.179055 16.8445 0.432048L17.1315 1.66583L18.2068 0.99628C18.4273 0.858967 18.7133 0.891823 18.897 1.0755L20.7171 2.89566C20.9008 3.07933 20.9336 3.36539 20.7964 3.58588L20.1268 4.66122L21.3606 4.94814C21.6136 5.007 21.7927 5.23246 21.7927 5.49221V8.06632C21.7927 8.32607 21.6136 8.55154 21.3606 8.61039L20.1268 8.89731L20.7964 9.97266C20.9337 10.1931 20.9008 10.4792 20.7171 10.6629L18.897 12.483C18.7133 12.6667 18.4272 12.6995 18.2068 12.5623L17.1315 11.8927L16.8445 13.1265C16.7856 13.3796 16.5602 13.5586 16.3004 13.5586H13.7263C13.4666 13.5586 13.2411 13.3796 13.1822 13.1266L12.8953 11.8928L11.8199 12.5623C11.5995 12.6996 11.3134 12.6668 11.1297 12.4831L9.30955 10.6629C9.12587 10.4792 9.09307 10.1932 9.23038 9.97271L9.89989 8.89736L8.6661 8.61044C8.41311 8.55159 8.23405 8.32612 8.23405 8.06637V5.49226C8.23405 5.23252 8.41311 5.00705 8.6661 4.94819L9.89989 4.66128L9.23038 3.58593C9.09307 3.36544 9.12593 3.07938 9.30955 2.89571L11.1297 1.07555C11.3133 0.891874 11.5994 0.859018 11.8199 0.996331L12.8953 1.66588L13.1822 0.432048C13.2411 0.179055 13.4666 0 13.7263 0H16.3004ZM15.8568 1.11719H14.1699L13.8819 2.35544C13.8393 2.53861 13.7074 2.68806 13.5309 2.75306C13.4262 2.79161 13.32 2.83574 13.2153 2.88418C13.0445 2.96315 12.8453 2.95086 12.6855 2.85138L11.606 2.17918L10.4132 3.37199L11.0854 4.45155C11.1849 4.61131 11.1972 4.81042 11.1182 4.98125C11.0698 5.08586 11.0257 5.19204 10.9871 5.29691C10.9221 5.47337 10.7726 5.60525 10.5894 5.64786L9.35124 5.93584V7.62275L10.5894 7.91073C10.7726 7.95333 10.9221 8.08521 10.9871 8.26168C11.0257 8.36654 11.0698 8.47278 11.1182 8.57733C11.1972 8.74816 11.1849 8.94728 11.0854 9.10703L10.4132 10.1866L11.606 11.3794L12.6856 10.7072C12.8453 10.6077 13.0445 10.5954 13.2153 10.6744C13.32 10.7228 13.4262 10.7669 13.5309 10.8055C13.7074 10.8705 13.8394 11.0199 13.882 11.2031L14.1699 12.4414H15.8568L16.1448 11.2032C16.1874 11.0201 16.3194 10.8706 16.4958 10.8056C16.6005 10.7671 16.7067 10.7229 16.8114 10.6745C16.9822 10.5955 17.1814 10.6078 17.3411 10.7073L18.4207 11.3795L19.6135 10.1867L18.9413 9.10714C18.8418 8.94738 18.8295 8.74821 18.9085 8.57738C18.957 8.47257 19.0011 8.36639 19.0396 8.26183C19.1046 8.08531 19.254 7.95338 19.4372 7.91078L20.6755 7.6228V5.93589L19.4372 5.64791C19.2541 5.6053 19.1046 5.47337 19.0396 5.29686C19.0011 5.1923 18.957 5.08611 18.9085 4.9813C18.8295 4.81047 18.8418 4.61136 18.9413 4.45155L19.6135 3.37199L18.4207 2.17918L17.3411 2.85138C17.1813 2.95086 16.9822 2.9632 16.8114 2.88418C16.7066 2.83574 16.6004 2.79161 16.4957 2.75306C16.3193 2.68806 16.1873 2.53861 16.1447 2.35544L15.8568 1.11719ZM15.0134 4.40625C16.3219 4.40625 17.3864 5.47078 17.3864 6.77932C17.3864 8.08785 16.3219 9.15238 15.0134 9.15238C13.7048 9.15238 12.6403 8.08785 12.6403 6.77932C12.6403 5.47078 13.7048 4.40625 15.0134 4.40625ZM15.0134 5.52344C14.3209 5.52344 13.7575 6.08681 13.7575 6.77932C13.7575 7.47182 14.3209 8.03519 15.0134 8.03519C15.7058 8.03519 16.2692 7.47182 16.2692 6.77932C16.2692 6.08681 15.7058 5.52344 15.0134 5.52344Z" />
</svg>
