<svg viewBox="0 0 24 25" fill="currentColor">
  <path
    fill-rule="evenodd"
    clip-rule="evenodd"
    d="M14.8121 6.39864C14.8119 6.39941 14.8119 6.79783 14.812 7.45877L16.8437 5.42702V1.04688C16.8437 0.762109 17.0746 0.53125 17.3594 0.53125H20.4219H23.4844C23.7691 0.53125 24 0.762109 24 1.04688V4.10936C24 4.39412 23.7691 4.62498 23.4844 4.62498H20.4219C20.1371 4.62498 19.9063 4.39412 19.9063 4.10936V1.5625H17.875V5.64062C17.875 5.77736 17.8207 5.90852 17.724 6.00522L14.8122 8.91701L14.8124 10.4844H20.4219H23.4844C23.7691 10.4844 24 10.7152 24 11V14.0625C24 14.3473 23.7691 14.5781 23.4844 14.5781H20.4219C20.1371 14.5781 19.9063 14.3473 19.9063 14.0625V11.5156H14.8126L14.8129 13.0836L17.724 15.9947C17.8207 16.0915 17.875 16.2226 17.875 16.3593V20.4375H20.4219L20.4231 20.4375H23.4844C23.7691 20.4375 24 20.6684 24 20.9531V24.0156C24 24.3004 23.7691 24.5312 23.4844 24.5312H20.4219C20.1371 24.5312 19.9063 24.3004 19.9063 24.0156V21.4687H17.3594C17.0746 21.4687 16.8437 21.2379 16.8437 20.9531V16.573L14.8131 14.5423C14.8135 17.5253 14.8136 20.1856 14.8125 20.1875C14.8125 20.4722 14.5816 20.7031 14.2969 20.7031H0.515625C0.230859 20.7031 0 20.4722 0 20.1875V1.81248C0 1.52772 0.230859 1.29686 0.515672 1.29686H9.70317C9.83859 1.297 9.972 1.35198 10.0678 1.44789L14.6615 6.04164C14.7552 6.13558 14.811 6.2658 14.8121 6.39864ZM20.9375 3.59373H22.9688V1.5625H20.9375V3.59373ZM20.9375 23.5H22.9688V21.4688H20.9375V23.5ZM22.9688 13.5469H20.9375V11.5156H22.9688V13.5469ZM10.2188 3.05734L13.052 5.89061H10.2188V3.05734ZM1.03125 19.6719H13.7812V6.92186H9.70312C9.41836 6.92186 9.1875 6.691 9.1875 6.40623V2.32811H1.03125V19.6719ZM3.57811 5.39059H5.87498C6.55786 5.36547 6.55837 4.3847 5.87498 4.35934H3.57811C2.89523 4.38447 2.89472 5.36523 3.57811 5.39059Z"
  />
</svg>
