<svg viewBox="0 0 26 23" fill="currentColor" fill-rule="evenodd" clip-rule="evenodd">
  <path d="M15.5389 3.49439V0.558594C15.5389 0.250098 15.789 0 16.0975 0C16.4059 0 16.656 0.250098 16.656 0.558594V3.94661C17.7484 4.48463 18.7061 5.25587 19.4637 6.19491H23.3341V4.1395C22.4423 3.8941 21.7854 3.07599 21.7854 2.10732C21.7854 0.945344 22.7307 0 23.8927 0C25.0547 0 26 0.945344 26 2.10732C26 3.07598 25.343 3.8941 24.4513 4.1395V6.7535C24.4513 7.062 24.2012 7.31209 23.8927 7.31209H20.2244C20.8236 8.36687 21.1984 9.56498 21.2836 10.8411H25.4414C25.7499 10.8411 26 11.0912 26 11.3997C26 11.7082 25.7499 11.9583 25.4414 11.9583H21.2836C21.1984 13.2344 20.8236 14.4325 20.2244 15.4873H23.8927C24.2012 15.4873 24.4513 15.7374 24.4513 16.0459V18.6599C25.343 18.9052 26 19.7233 26 20.692C26 21.854 25.0547 22.7994 23.8927 22.7994C22.7307 22.7994 21.7854 21.854 21.7854 20.692C21.7854 19.7234 22.4423 18.9053 23.3341 18.6599V16.6045H19.4637C18.7061 17.5435 17.7484 18.3147 16.656 18.8527V22.2408C16.656 22.5493 16.4059 22.7994 16.0975 22.7994C15.789 22.7994 15.5389 22.5493 15.5389 22.2408V19.3049C14.7383 19.5626 13.8851 19.7019 13 19.7019C12.1149 19.7019 11.2617 19.5626 10.4611 19.3049V22.2408C10.4611 22.5493 10.211 22.7994 9.90255 22.7994C9.59405 22.7994 9.34395 22.5493 9.34395 22.2408V18.8527C8.25162 18.3147 7.29395 17.5435 6.53632 16.6045H2.66591V18.6598C3.55768 18.9052 4.21464 19.7233 4.21464 20.692C4.21464 21.854 3.2693 22.7994 2.10732 22.7994C0.945344 22.7994 0 21.854 0 20.692C0 19.7233 0.656964 18.9052 1.54873 18.6598V16.0459C1.54873 15.7374 1.79882 15.4873 2.10732 15.4873H5.77557C5.17643 14.4325 4.8016 13.2344 4.71641 11.9583H0.558594C0.250098 11.9583 0 11.7082 0 11.3997C0 11.0912 0.250098 10.8411 0.558594 10.8411H4.71641C4.80158 9.56498 5.17639 8.36687 5.77552 7.31209H2.10732C1.79882 7.31209 1.54873 7.062 1.54873 6.7535V4.1395C0.656964 3.8941 0 3.07598 0 2.10732C0 0.945344 0.945344 0 2.10732 0C3.2693 0 4.21464 0.945344 4.21464 2.10732C4.21464 3.07598 3.55768 3.8941 2.66591 4.1395V6.19491H6.53626C7.29389 5.25585 8.25159 4.48461 9.34395 3.94659V0.558594C9.34395 0.250098 9.59405 0 9.90255 0C10.211 0 10.4611 0.250098 10.4611 0.558594V3.49438C11.2617 3.23668 12.1149 3.09745 13 3.09745C13.8851 3.09745 14.7383 3.23668 15.5389 3.49439ZM15.7684 4.76935C14.916 4.4121 13.9806 4.21464 13 4.21464C9.03815 4.21464 5.81501 7.43783 5.81501 11.3997C5.81501 15.3615 9.0382 18.5847 13 18.5847C13.964 18.5847 14.8843 18.3939 15.725 18.048C15.811 17.9711 15.9209 17.9203 16.0422 17.9084C18.4876 16.7609 20.185 14.2748 20.185 11.3997C20.185 8.50345 18.4625 6.00197 15.9882 4.86584C15.9073 4.84979 15.8326 4.81626 15.7684 4.76935ZM2.10732 1.11719C1.56137 1.11719 1.11719 1.56137 1.11719 2.10732C1.11719 2.65327 1.56137 3.09745 2.10732 3.09745C2.65327 3.09745 3.09745 2.65327 3.09745 2.10732C3.09745 1.56137 2.65327 1.11719 2.10732 1.11719ZM1.11719 20.692C1.11719 20.146 1.56137 19.7019 2.10732 19.7019C2.65327 19.7019 3.09745 20.146 3.09745 20.692C3.09745 21.2379 2.65327 21.6821 2.10732 21.6821C1.56137 21.6821 1.11719 21.2379 1.11719 20.692ZM23.8927 19.7019C23.3467 19.7019 22.9025 20.146 22.9025 20.692C22.9025 21.2379 23.3467 21.6821 23.8927 21.6821C24.4386 21.6821 24.8828 21.238 24.8828 20.692C24.8828 20.146 24.4386 19.7019 23.8927 19.7019ZM22.9025 2.10732C22.9025 1.56137 23.3467 1.11719 23.8927 1.11719C24.4386 1.11719 24.8828 1.56132 24.8828 2.10732C24.8828 2.65332 24.4386 3.09745 23.8927 3.09745C23.3467 3.09745 22.9025 2.65327 22.9025 2.10732Z" />
</svg>
