<svg viewBox="0 0 26 26" fill="currentColor">
  <path d="M13.1899 0.0332617L13.2793 0.0748389L17.0117 2.22979C17.1557 2.3129 17.2537 2.45484 17.2823 2.61533L17.291 2.71353V7.02334C17.291 7.11163 17.2702 7.19697 17.2319 7.27333L20.167 8.934L21.4297 8.20644C21.5737 8.12329 21.7456 8.10943 21.8989 8.16486L21.9883 8.20644L25.7207 10.3613C25.8647 10.4445 25.9627 10.5864 25.9913 10.7469L26 10.8451V15.1549C26 15.3212 25.9261 15.477 25.8014 15.5821L25.7207 15.6387L21.9883 17.7936C21.8473 17.8759 21.6709 17.8896 21.5181 17.8347L21.4297 17.7936L20.295 17.138L17.2697 18.8239C17.2748 18.8418 17.279 18.86 17.2823 18.8785L17.291 18.9766V23.2864C17.291 23.4527 17.2171 23.6085 17.0924 23.7136L17.0117 23.7702L13.2793 25.9251C13.1383 26.0074 12.9619 26.0212 12.8091 25.9663L12.7207 25.9251L8.98828 23.7702C8.84427 23.687 8.74632 23.5451 8.71767 23.3846L8.70898 23.2864V18.9766C8.70898 18.9232 8.71662 18.8709 8.73111 18.821L5.775 17.097L4.57031 17.7936C4.42931 17.8759 4.2529 17.8896 4.1001 17.8347L4.01172 17.7936L0.279297 15.6387C0.13529 15.5556 0.0373383 15.4136 0.00868806 15.2531L0 15.1549V10.8451C0 10.6788 0.0739502 10.523 0.198605 10.418L0.279297 10.3613L4.01172 8.20644C4.15577 8.12329 4.32761 8.10943 4.48092 8.16486L4.57031 8.20644L5.747 8.886L8.73111 7.17903C8.72564 7.16019 8.72115 7.141 8.71767 7.12154L8.70898 7.02334V2.71353C8.70898 2.54727 8.78294 2.39148 8.90759 2.28642L8.98828 2.22979L12.7207 0.0748389C12.8648 -0.00831543 13.0366 -0.0221745 13.1899 0.0332617ZM9.82617 19.9442V22.964L12.4414 24.4739V21.4542L9.82617 19.9442ZM16.1738 19.9442L13.5586 21.4541V24.4739L16.1738 22.964V19.9442ZM13 17.4668L10.3848 18.9767L13 20.4866L15.6152 18.9767L13 17.4668ZM9.694 7.915L6.867 9.532L8.30273 10.3613C8.44674 10.4445 8.54469 10.5864 8.57334 10.7469L8.58203 10.8451V15.1549C8.58203 15.3212 8.50808 15.477 8.38343 15.5821L8.30273 15.6387L6.89 16.453L9.691 18.086L12.7207 16.3379C12.8648 16.2548 13.0366 16.2409 13.1899 16.2964L13.2793 16.3379L16.303 18.083L19.168 16.488L17.6973 15.6387C17.5533 15.5556 17.4553 15.4136 17.4267 15.2531L17.418 15.1549V10.8451C17.418 10.6788 17.4919 10.523 17.6166 10.418L17.6973 10.3613L19.045 9.583L16.202 7.974L13.2793 9.66203C13.1383 9.74434 12.9619 9.75806 12.8091 9.70319L12.7207 9.66203L9.694 7.915ZM1.11719 11.8126V14.8324L3.73242 16.3424V13.3225L1.11719 11.8126ZM7.46484 11.8126L4.84961 13.3225V16.3423L7.46484 14.8324V11.8126ZM18.5352 11.8126V14.8324L21.1504 16.3424V13.3225L18.5352 11.8126ZM24.8828 11.8126L22.2676 13.3225V16.3423L24.8828 14.8324V11.8126ZM4.29102 9.33521L1.73707 10.8097L1.67578 10.8451L4.29102 12.355L6.90625 10.8451L6.84496 10.8097L5.47245 10.0173C5.47076 10.0163 5.46907 10.0154 5.46738 10.0144L4.29102 9.33521ZM21.709 9.33521L19.155 10.8097L19.0938 10.8451L21.709 12.355L24.3242 10.8451L24.2629 10.8097L21.709 9.33521ZM9.82617 3.68102V6.70083L12.4414 8.21071V5.1909L9.82617 3.68102ZM16.1738 3.68107L13.5586 5.19095V8.21076L16.1738 6.70088V3.68107ZM13 1.20366L10.3848 2.71353L13 4.22341L15.6152 2.71353L13 1.20366Z" />
</svg>
