<svg viewBox="0 0 28 20" fill="currentColor">
  <path d="M7.32856 16.6785C7.66079 16.6785 7.93013 16.9478 7.93013 17.28V18.3463H10.6643C10.9965 18.3463 11.2658 18.6157 11.2658 18.9479C11.2658 19.2801 10.9965 19.5495 10.6643 19.5495H7.32856C6.99634 19.5495 6.727 19.2801 6.727 18.9479V17.28C6.727 16.9478 6.99634 16.6785 7.32856 16.6785ZM20.6714 16.6785C21.0037 16.6785 21.273 16.9478 21.273 17.28V18.9479C21.273 19.2801 21.0037 19.5495 20.6714 19.5495H17.3357C17.0035 19.5495 16.7342 19.2801 16.7342 18.9479C16.7342 18.6157 17.0035 18.3463 17.3357 18.3463H20.0699V17.28C20.0699 16.9478 20.3392 16.6785 20.6714 16.6785ZM14 10.0071C16.6309 10.0071 18.7712 12.1475 18.7712 14.7783V15.6122C18.7712 15.9445 18.5019 16.2138 18.1696 16.2138H9.83035C9.49813 16.2138 9.22879 15.9445 9.22879 15.6122V14.7783C9.22879 12.1475 11.3691 10.0071 14 10.0071ZM14 11.2102C12.0326 11.2102 10.4319 12.8109 10.4319 14.7783V15.0107H17.5681V14.7783C17.5681 12.8108 15.9674 11.2102 14 11.2102ZM3.9929 8.33924C6.16388 8.33924 7.93013 10.1055 7.93013 12.2765C7.93013 12.6088 7.66079 12.8781 7.32856 12.8781H0.601562C0.269336 12.8781 0 12.6088 0 12.2765C0 11.2255 0.421148 10.2351 1.1859 9.48763C1.94354 8.7471 2.94038 8.33924 3.9929 8.33924ZM24.0071 8.33924C25.0596 8.33924 26.0565 8.7471 26.8141 9.48763C27.5789 10.2351 28 11.2255 28 12.2765C28 12.6088 27.7307 12.8781 27.3984 12.8781H20.6714C20.3392 12.8781 20.0699 12.6088 20.0699 12.2765C20.0699 10.1055 21.8361 8.33924 24.0071 8.33924ZM3.9929 9.54237C2.66536 9.54237 1.55148 10.4557 1.27116 11.675H6.66034C6.38559 10.4557 5.29391 9.54237 3.9929 9.54237ZM24.0071 9.54237C22.7061 9.54237 21.6144 10.4557 21.3397 11.675H26.7288C26.4485 10.4557 25.3346 9.54237 24.0071 9.54237ZM14 3.33566C15.7112 3.33566 17.1034 4.72784 17.1034 6.43902C17.1034 8.15019 15.7112 9.54237 14 9.54237C12.2888 9.54237 10.8966 8.15019 10.8966 6.43902C10.8966 4.72784 12.2888 3.33566 14 3.33566ZM14 4.53879C12.9522 4.53879 12.0998 5.39126 12.0998 6.43902C12.0998 7.48677 12.9522 8.33924 14 8.33924C15.0478 8.33924 15.9002 7.48677 15.9002 6.43902C15.9002 5.39126 15.0478 4.53879 14 4.53879ZM3.9929 3.33566C5.24426 3.33566 6.26232 4.35373 6.26232 5.60509C6.26232 6.85645 5.24426 7.87451 3.9929 7.87451C2.73263 7.87451 1.66786 6.83523 1.66786 5.60509C1.66786 4.37495 2.73263 3.33566 3.9929 3.33566ZM24.0071 3.33566C25.2674 3.33566 26.3321 4.37495 26.3321 5.60509C26.3321 6.83523 25.2674 7.87451 24.0071 7.87451C22.7557 7.87451 21.7377 6.85645 21.7377 5.60509C21.7377 4.35373 22.7557 3.33566 24.0071 3.33566ZM3.9929 4.53879C3.38477 4.53879 2.87098 5.02709 2.87098 5.60509C2.87098 6.18308 3.38477 6.67138 3.9929 6.67138C4.58084 6.67138 5.0592 6.19303 5.0592 5.60509C5.0592 5.01714 4.58084 4.53879 3.9929 4.53879ZM24.0071 4.53879C23.4192 4.53879 22.9408 5.01714 22.9408 5.60509C22.9408 6.19303 23.4192 6.67138 24.0071 6.67138C24.6152 6.67138 25.129 6.18308 25.129 5.60509C25.129 5.02709 24.6152 4.53879 24.0071 4.53879ZM10.6643 0C10.9965 0 11.2658 0.269336 11.2658 0.601562C11.2658 0.933789 10.9965 1.20312 10.6643 1.20312H7.93013V2.26942C7.93013 2.60165 7.66079 2.87098 7.32856 2.87098C6.99634 2.87098 6.727 2.60165 6.727 2.26942V0.601562C6.727 0.269336 6.99634 0 7.32856 0H10.6643ZM20.6714 0C21.0037 0 21.273 0.269336 21.273 0.601562V2.26942C21.273 2.60165 21.0037 2.87098 20.6714 2.87098C20.3392 2.87098 20.0699 2.60165 20.0699 2.26942V1.20312H17.3357C17.0035 1.20312 16.7342 0.933789 16.7342 0.601562C16.7342 0.269336 17.0035 0 17.3357 0H20.6714Z" />
</svg>
