<svg viewBox="0 0 26 26" fill="currentColor">
  <path d="M13 0C16.4724 0 19.737 1.35225 22.1924 3.80758C24.6478 6.263 26 9.52758 26 13C26 16.4724 24.6478 19.737 22.1924 22.1924C19.737 24.6477 16.4724 26 13 26C9.52758 26 6.263 24.6477 3.80763 22.1924C1.3522 19.737 0 16.4724 0 13C0 9.52758 1.3522 6.263 3.80763 3.80758C6.263 1.35225 9.52758 0 13 0ZM13 1.11719C6.4478 1.11719 1.11719 6.4478 1.11719 13C1.11719 19.5522 6.4478 24.8828 13 24.8828C19.5522 24.8828 24.8828 19.5522 24.8828 13C24.8828 6.4478 19.5522 1.11719 13 1.11719ZM14.652 19.0493C14.8548 19.0493 15.0418 19.1593 15.1403 19.3366L16.4791 21.7466C16.5599 21.892 16.5717 22.0658 16.5113 22.2208C16.4508 22.3758 16.3245 22.4957 16.1666 22.5481C15.1471 22.886 14.0817 23.0574 13 23.0574C11.9183 23.0574 10.8529 22.886 9.83338 22.5481C9.6755 22.4957 9.54916 22.3757 9.48873 22.2208C9.4283 22.0659 9.44008 21.892 9.52087 21.7466L10.8597 19.3366C10.9582 19.1593 11.1452 19.0493 11.348 19.0493H14.652ZM14.3233 20.1665H11.6767L10.8377 21.6766C11.542 21.8517 12.2666 21.9402 13 21.9402C13.7333 21.9402 14.4579 21.8517 15.1623 21.6766L14.3233 20.1665ZM8.18964 13C8.18964 14.2848 8.68999 15.4928 9.59857 16.4014C9.79249 16.5953 9.81399 16.8963 9.6632 17.114L9.59857 17.1914L6.67829 20.1117C6.46014 20.3298 6.10645 20.3298 5.88829 20.1117C3.98871 18.2121 2.94257 15.6864 2.94257 13C2.94257 7.45433 7.45433 2.94257 13 2.94257C18.5457 2.94257 23.0573 7.45433 23.0573 13C23.0573 15.6864 22.0112 18.2121 20.1116 20.1117C20.0025 20.2207 19.8596 20.2753 19.7166 20.2753C19.6023 20.2753 19.4879 20.2403 19.3909 20.1705L19.3217 20.1117L16.4014 17.1914C16.1833 16.9732 16.1832 16.6195 16.4014 16.4014C17.31 15.4929 17.8103 14.2849 17.8103 13C17.8103 10.6112 16.0599 8.62383 13.7744 8.25235L13.5586 8.2223V10.8611L13.533 10.8544C14.4953 11.0935 15.2106 11.9648 15.2106 13C15.2106 14.2189 14.2189 15.2106 13 15.2106C11.7811 15.2106 10.7894 14.2189 10.7894 13C10.7894 11.9648 11.5047 11.0935 12.467 10.8544L12.4414 10.8611L12.4414 8.2223C10.0512 8.50002 8.18964 10.5365 8.18964 13ZM6.29896 7.08896C4.90633 8.66577 4.05976 10.7358 4.05976 13C4.05976 15.0851 4.7687 17.0611 6.07255 18.6529L6.29535 18.9146L8.43187 16.7781C7.55158 15.7176 7.07251 14.3956 7.07251 13C7.07251 11.662 7.51828 10.4264 8.2689 9.43334L8.43436 9.22431L6.29896 7.08896ZM19.701 7.08891L17.5656 9.22431C18.4158 10.2504 18.9275 11.5665 18.9275 13C18.9275 14.3025 18.5102 15.541 17.7388 16.5626L17.5681 16.7781L19.7046 18.9146C21.1503 17.2804 21.9402 15.2009 21.9402 12.9999C21.9402 10.7357 21.0937 8.66577 19.701 7.08891ZM13 11.9066C12.3971 11.9066 11.9066 12.3971 11.9066 13C11.9066 13.6029 12.3971 14.0934 13 14.0934C13.6029 14.0934 14.0934 13.6029 14.0934 13C14.0934 12.3971 13.6029 11.9066 13 11.9066ZM12.4414 6.39214C12.4414 6.08364 12.6915 5.83355 13 5.83355C13.2776 5.83355 13.508 6.03613 13.5513 6.30154L13.5586 6.39214V7.09902C14.6808 7.20439 15.713 7.62403 16.5661 8.26859L16.7756 8.43436L18.911 6.29896C17.3342 4.90633 15.2642 4.05976 13 4.05976C10.849 4.05976 8.8733 4.82379 7.32911 6.0942L7.08891 6.29896L9.22431 8.43436C10.047 7.75294 11.0562 7.28899 12.1627 7.13186L12.4414 7.09902L12.4414 6.39214Z" />
</svg>
