<svg viewBox="0 0 36 36" fill="currentColor">
  <path
    fill-rule="evenodd"
    clip-rule="evenodd"
    d="M12.223 22.1138V18.2449C12.214 18.2356 12.205 18.2262 12.196 18.2167C12.205 18.2261 12.2139 18.2355 12.2229 18.2449V18.6109L10.3068 21.5305C9.7494 22.3799 8.8932 22.9544 7.89589 23.1481C6.8983 23.342 5.88945 23.1297 5.0547 22.5509C4.37288 22.0782 3.52716 22.0257 2.79212 22.4105C2.05714 22.7953 1.61832 23.5203 1.61832 24.3499V24.3617C1.61832 24.7889 1.27203 25.1351 0.844881 25.1351C0.417733 25.1351 0.0714437 24.7889 0.0714437 24.3617V24.3499C0.0714437 22.9552 0.839045 21.687 2.07465 21.0401C3.31046 20.3933 4.78991 20.485 5.93607 21.2797C6.4253 21.619 7.01649 21.7433 7.60093 21.6296C8.1853 21.5161 8.68698 21.1795 9.01365 20.6818L11.2728 17.2394L9.3534 17.2716C9.32563 17.2721 9.29771 17.2723 9.27001 17.2723C7.7945 17.2723 6.42678 16.6128 5.5066 15.454C4.56919 14.2736 4.24154 12.7578 4.60759 11.2955C4.85255 10.3169 4.6381 9.29868 4.01907 8.50197C3.40011 7.70533 2.46657 7.24583 1.45773 7.24133L0.77035 7.23859C0.343202 7.23691 -0.00168133 6.88921 6.16633e-06 6.46206C0.00169367 6.03597 0.347702 5.69172 0.773374 5.69172H0.776538L1.46426 5.69446C2.9518 5.70114 4.32816 6.37846 5.24061 7.55296C6.15312 8.72739 6.46939 10.2285 6.1082 11.6712C5.85985 12.6632 6.08211 13.6913 6.71802 14.4921C7.34218 15.278 8.27009 15.7255 9.27092 15.7255C9.28977 15.7255 9.30854 15.7253 9.32752 15.725L10.3248 15.7083C9.23119 13.7926 8.64902 11.6165 8.64902 9.35099C8.64902 4.19484 12.8439 0 18 0C23.1562 0 27.351 4.19484 27.351 9.35099C27.351 11.6165 26.7689 13.7925 25.6753 15.7082L26.6726 15.7249C27.6983 15.7416 28.6461 15.2928 29.282 14.492C29.9179 13.6912 30.1402 12.663 29.8919 11.6711C29.5307 10.2283 29.8469 8.72728 30.7594 7.55278C31.6719 6.37835 33.0482 5.70096 34.5354 5.69435L35.2235 5.69161C35.6529 5.69126 35.9984 6.0348 36 6.46195C36.0017 6.8891 35.6568 7.2368 35.2297 7.23848L34.542 7.24123C33.5335 7.24573 32.5999 7.70522 31.981 8.50186C31.3619 9.29857 31.1475 10.3168 31.3925 11.2955C31.7585 12.7578 31.4309 14.2735 30.4934 15.454C29.5733 16.6126 28.2055 17.2723 26.73 17.2723C26.7022 17.2723 26.6745 17.2721 26.6466 17.2716L24.7273 17.2394L26.9864 20.6818C27.3131 21.1795 27.8147 21.5161 28.3991 21.6296C28.9837 21.7431 29.5747 21.6188 30.064 21.2797C31.2102 20.4851 32.6897 20.3932 33.9254 21.04C35.161 21.6869 35.9286 22.9552 35.9286 24.3499V24.3617C35.9286 24.7888 35.5823 25.1351 35.1552 25.1351C34.728 25.1351 34.3817 24.7888 34.3817 24.3617V24.3499C34.3817 23.5203 33.9429 22.7952 33.2079 22.4105C32.473 22.0256 31.6271 22.0781 30.9453 22.5508C30.1105 23.1297 29.1017 23.3419 28.1042 23.1481C27.1068 22.9544 26.2506 22.3799 25.6932 21.5305L23.7771 18.6109V18.2449C23.848 18.171 23.9179 18.0965 23.9868 18.0212C23.9178 18.0965 23.8479 18.1711 23.777 18.2449V22.2173C23.777 22.6445 23.4307 22.9908 23.0036 22.9908H13.5872L12.2448 27.9129C11.7727 29.6442 10.1894 30.8535 8.39484 30.8535C6.97031 30.8535 5.68964 30.062 5.05247 28.7878C4.80771 28.2983 4.3158 27.9943 3.76863 27.9943C2.97712 27.9943 2.3332 28.6382 2.3332 29.4297V30.7948C2.3332 31.222 1.98691 31.5683 1.55976 31.5683C1.13261 31.5683 0.786324 31.222 0.786324 30.7948V29.4297C0.786324 27.7853 2.12416 26.4474 3.76856 26.4474C4.90551 26.4474 5.92765 27.0792 6.43608 28.096C6.80943 28.8427 7.56002 29.3066 8.39484 29.3066C9.49383 29.3066 10.4633 28.5661 10.7524 27.5059L12.223 22.1138ZM22.2301 21.4439H13.7699V17.9286C13.7699 17.7235 13.6883 17.5267 13.5433 17.3817L13.5074 17.3458C11.3719 15.2102 10.1958 12.371 10.1958 9.35102C10.1958 5.04776 13.6967 1.54691 17.9999 1.54691C22.3031 1.54691 25.8041 5.04783 25.8041 9.35102C25.8041 12.3711 24.628 15.2103 22.4926 17.3458L22.4566 17.3817C22.3116 17.5267 22.2301 17.7235 22.2301 17.9286V21.4439ZM16.2717 15.0694C16.2717 15.4965 15.9255 15.8428 15.4983 15.8428C14.4725 15.8021 14.4728 14.3367 15.4983 14.2961C15.9254 14.2961 16.2717 14.6424 16.2717 15.0694ZM20.5017 15.8428C20.9288 15.8428 21.275 15.4965 21.275 15.0694C21.275 14.6424 20.9288 14.2961 20.5017 14.2961C19.4761 14.3367 19.4758 15.8021 20.5017 15.8428ZM23.0036 22.9908H22.4129L23.7553 27.9129C24.2274 29.6442 25.8106 30.8535 27.6052 30.8535C29.0298 30.8535 30.3105 30.062 30.9476 28.7878C31.1923 28.2983 31.6843 27.9943 32.2315 27.9943C33.0229 27.9943 33.6669 28.6382 33.6669 29.4297V30.7948C33.6669 31.222 34.0132 31.5683 34.4403 31.5683C34.8675 31.5683 35.2137 31.222 35.2137 30.7948V29.4297C35.2137 27.7853 33.8759 26.4474 32.2314 26.4474C31.0946 26.4474 30.0724 27.0791 29.564 28.096C29.1906 28.8427 28.4401 29.3066 27.6052 29.3066C26.5062 29.3066 25.5368 28.5661 25.2477 27.5059L23.7771 22.1138V22.2174C23.7771 22.6445 23.4308 22.9908 23.0036 22.9908ZM15.0822 31.9345C15.0822 33.3233 13.9524 34.4531 12.5636 34.4531C12.0648 34.4531 11.5817 34.3068 11.1666 34.0301L9.85155 33.1534C9.49619 32.9164 9.01589 33.0124 8.779 33.3679C8.54205 33.7234 8.6381 34.2035 8.99353 34.4405L10.3086 35.3172C10.9787 35.7638 11.7585 35.9999 12.5637 35.9999C14.8054 35.9999 16.6291 34.1762 16.6291 31.9345V22.9908H15.0822V31.9345ZM23.4363 36C21.1947 36 19.3709 34.1762 19.3709 31.9345V22.9908H20.9178V31.9345C20.9178 33.3232 22.0475 34.4531 23.4363 34.4531C23.9351 34.4531 24.4183 34.3068 24.8334 34.0301L26.1484 33.1534C26.5038 32.9164 26.9842 33.0124 27.221 33.3679C27.4579 33.7234 27.3619 34.2035 27.0065 34.4405L25.6914 35.3172C25.0213 35.7639 24.2415 36 23.4363 36Z"
  />
</svg>
