<svg viewBox="0 0 18 22" fill="currentColor">
  <path d="M8.14724 0.478994C8.67524 0.173994 9.32524 0.173994 9.85324 0.478994L10.9282 1.09899C10.9592 1.11699 10.9952 1.12699 11.0312 1.12699H12.2722C12.8812 1.12699 13.4452 1.45199 13.7492 1.97999L14.3702 3.05499C14.3882 3.08599 14.4142 3.11199 14.4452 3.12999L15.5202 3.75099C16.0482 4.05499 16.3732 4.61899 16.3732 5.22799V6.46899C16.3732 6.50499 16.3832 6.54099 16.4012 6.57199L17.0212 7.64699C17.3262 8.17499 17.3262 8.82499 17.0212 9.35299L16.4012 10.428C16.3832 10.459 16.3732 10.495 16.3732 10.531V11.772C16.3732 12.381 16.0482 12.945 15.5202 13.249L14.4452 13.87C14.4142 13.888 14.3882 13.914 14.3702 13.945L13.7492 15.02C13.4452 15.548 12.8812 15.873 12.2722 15.873H11.0312C10.9952 15.873 10.9592 15.883 10.9282 15.901L9.85324 16.521C9.32524 16.826 8.67524 16.826 8.14724 16.521L7.07224 15.901C7.04124 15.883 7.00524 15.873 6.96924 15.873H5.72824C5.11924 15.873 4.55524 15.548 4.25124 15.02L3.63024 13.945C3.61224 13.914 3.58624 13.888 3.55524 13.87L2.48024 13.249C1.95224 12.945 1.62724 12.381 1.62724 11.772V10.531C1.62724 10.495 1.61724 10.459 1.59924 10.428L0.979238 9.35299C0.674238 8.82499 0.674238 8.17499 0.979238 7.64699L1.59924 6.57199C1.61724 6.54099 1.62724 6.50499 1.62724 6.46899V5.22799C1.62724 4.61899 1.95224 4.05499 2.48024 3.75099L3.55524 3.12999C3.58624 3.11199 3.61224 3.08599 3.63024 3.05499L4.25124 1.97999C4.55524 1.45199 5.11924 1.12699 5.72824 1.12699H6.96924C7.00524 1.12699 7.04124 1.11699 7.07224 1.09899L8.14724 0.478994ZM8.89724 1.77799L7.82224 2.39799C7.56324 2.54799 7.26924 2.62699 6.96924 2.62699H5.72824C5.65424 2.62699 5.58624 2.66599 5.55024 2.72999L4.92924 3.80499C4.77924 4.06399 4.56424 4.27899 4.30524 4.42899L3.23024 5.04999C3.16624 5.08599 3.12724 5.15399 3.12724 5.22799V6.46899C3.12724 6.76899 3.04824 7.06299 2.89824 7.32199L2.27824 8.39699C2.24124 8.46099 2.24124 8.53899 2.27824 8.60299L2.89824 9.67799C3.04824 9.93699 3.12724 10.231 3.12724 10.531V11.772C3.12724 11.846 3.16624 11.914 3.23024 11.95L4.30524 12.571C4.56424 12.721 4.77924 12.936 4.92924 13.195L5.55024 14.27C5.58624 14.334 5.65424 14.373 5.72824 14.373H6.96924C7.26924 14.373 7.56324 14.452 7.82224 14.602L8.89724 15.222C8.96124 15.259 9.03924 15.259 9.10324 15.222L10.1782 14.602C10.4372 14.452 10.7312 14.373 11.0312 14.373H12.2722C12.3462 14.373 12.4142 14.334 12.4502 14.27L13.0712 13.195C13.2212 12.936 13.4362 12.721 13.6952 12.571L14.7702 11.95C14.8342 11.914 14.8732 11.846 14.8732 11.772V10.531C14.8732 10.231 14.9522 9.93699 15.1022 9.67799L15.7222 8.60299C15.7592 8.53899 15.7592 8.46099 15.7222 8.39699L15.1022 7.32199C14.9522 7.06299 14.8732 6.76899 14.8732 6.46899V5.22799C14.8732 5.15399 14.8342 5.08599 14.7702 5.04999L13.6952 4.42899C13.4362 4.27899 13.2212 4.06399 13.0712 3.80499L12.4502 2.72999C12.4142 2.66599 12.3462 2.62699 12.2722 2.62699H11.0312C10.7312 2.62699 10.4372 2.54799 10.1782 2.39799L9.10324 1.77799C9.03924 1.74099 8.96124 1.74099 8.89724 1.77799Z" />
  <path d="M5.75 20.095L8.441 18.75C8.793 18.574 9.207 18.574 9.559 18.75L12.25 20.095V14.809C12.25 14.395 12.586 14.059 13 14.059C13.414 14.059 13.75 14.395 13.75 14.809V20.5C13.75 20.933 13.526 21.336 13.157 21.563C12.789 21.791 12.329 21.812 11.941 21.618L9 20.148L6.059 21.618C5.671 21.812 5.211 21.791 4.843 21.563C4.474 21.336 4.25 20.933 4.25 20.5V14.809C4.25 14.395 4.586 14.059 5 14.059C5.414 14.059 5.75 14.395 5.75 14.809V20.095Z" />
  <path d="M11.5 5.37499V7.56299C11.5 7.84699 11.339 8.10599 11.085 8.23299L9.335 9.10799C9.124 9.21399 8.876 9.21399 8.665 9.10799L6.915 8.23299C6.661 8.10599 6.5 7.84699 6.5 7.56199V5.37499C6.5 5.09099 6.661 4.83099 6.915 4.70399L8.665 3.82899C8.876 3.72399 9.124 3.72399 9.335 3.82899L11.085 4.70399C11.339 4.83099 11.5 5.09099 11.5 5.37499ZM10 5.83899L9 5.33899L8 5.83899V7.09899L9 7.59899L10 7.09899V5.83899Z" />
  <path d="M13.25 8.438V10.625C13.25 10.909 13.089 11.169 12.835 11.296L11.085 12.171C10.874 12.276 10.626 12.276 10.415 12.171L8.665 11.296C8.411 11.169 8.25 10.909 8.25 10.625V8.437C8.25 8.153 8.411 7.894 8.665 7.767L10.415 6.892C10.626 6.786 10.874 6.786 11.085 6.892L12.835 7.767C13.089 7.894 13.25 8.153 13.25 8.438ZM11.75 8.901L10.75 8.401L9.75 8.901V10.161L10.75 10.661L11.75 10.161V8.901Z" />
  <path d="M9.75 8.437V10.625C9.75 10.909 9.589 11.169 9.335 11.296L7.585 12.171C7.374 12.276 7.126 12.276 6.915 12.171L5.165 11.296C4.911 11.169 4.75 10.909 4.75 10.625V8.437C4.75 8.153 4.911 7.894 5.165 7.767L6.915 6.892C7.126 6.786 7.374 6.786 7.585 6.892L9.335 7.767C9.589 7.894 9.75 8.153 9.75 8.437ZM8.25 8.901L7.25 8.401L6.25 8.901V10.161L7.25 10.661L8.25 10.161V8.901Z" />
</svg>
