<svg viewBox="0 0 37 37" fill="currentColor">
  <path
    fill-rule="evenodd"
    clip-rule="evenodd"
    d="M22.0336 8.631C21.9467 8.63101 21.8623 8.61678 21.783 8.59027C20.6408 8.4327 19.4343 8.34523 18.1634 8.34523C17.5672 8.34523 16.9569 8.36446 16.3325 8.40473C16.2971 8.40954 16.2611 8.41201 16.2244 8.41201L16.2228 8.41201C15.4438 8.46519 14.6429 8.55109 13.8196 8.67319C10.2002 9.21007 7.20723 10.5486 5.08679 12.4917C5.04856 12.5364 5.00496 12.5772 4.9563 12.6131C3.30747 14.1701 2.20787 16.1029 1.77928 18.3142C0.919401 22.7505 3.04678 27.19 7.19892 29.6244C8.16119 30.1885 8.81217 31.1355 8.98509 32.2224C9.15721 33.3044 9.79901 34.2385 10.7459 34.7853L10.7961 34.8143C10.8697 33.5661 11.2322 32.3529 11.8639 31.2586C12.4956 30.1643 13.3648 29.2438 14.4088 28.5559L14.3586 28.5269C13.4371 27.9948 12.3335 27.8961 11.3307 28.2563C9.69265 28.8447 7.88726 28.2685 6.9403 26.8551C5.57035 24.8104 5.10247 23.0094 5.54961 21.502C6.13975 19.5127 7.32089 18.683 8.2078 18.3373C9.72885 17.7444 11.6246 18.0511 13.5457 19.2008C14.5661 19.8114 16.1544 20.1768 18.1133 20.2819C18.1485 20.28 18.1842 20.2804 18.2203 20.2833C18.24 20.2849 18.2595 20.2872 18.2787 20.2901C19.5992 20.3505 21.0821 20.2949 22.669 20.1187C22.6962 20.1142 22.7238 20.1111 22.7515 20.1094C23.0821 20.0719 23.4172 20.0292 23.7563 19.9813C25.2282 19.7731 26.6697 19.4811 28.0339 19.1225C26.8278 17.1499 25.5273 16.2106 23.3775 15.673C22.9517 15.5666 22.6927 15.1349 22.7992 14.709C22.9058 14.283 23.3372 14.024 23.7631 14.1305C26.4458 14.8013 28.1299 16.094 29.611 18.6671C31.7685 17.9854 33.6581 17.1353 35.0572 16.1903C35.2782 16.0409 35.4102 15.793 35.4101 15.5273C35.4101 15.3062 35.3217 15.1011 35.1609 14.9496C32.8211 12.7449 28.4706 9.58705 22.0629 8.63046C22.0578 8.63064 22.0527 8.63078 22.0476 8.63087C22.0429 8.63096 22.0383 8.631 22.0336 8.631ZM14.0208 0C18.2687 0 21.9091 3.02841 22.7255 7.13754C24.5614 7.44593 26.3465 7.94239 28.073 8.62611C31.916 10.148 34.6415 12.2754 36.2511 13.792C36.727 14.2405 36.9999 14.8729 37 15.5271C37 16.3218 36.6063 17.0623 35.947 17.5077C33.186 19.3727 28.712 20.8859 23.9789 21.5554C23.7507 21.5877 23.5243 21.6177 23.2997 21.6455C21.9857 23.9413 19.7639 25.5081 17.1419 25.9705C17.0957 25.9787 17.0495 25.9826 17.0036 25.9826C16.7547 25.9826 16.5168 25.8655 16.3653 25.6612C16.186 25.4193 16.1586 25.0969 16.2947 24.8283C16.7776 23.875 17.1046 22.864 17.2706 21.8135C15.3816 21.6408 13.8256 21.2209 12.7295 20.565C11.2607 19.6861 9.82298 19.4139 8.78506 19.8186C7.97634 20.1337 7.4005 20.8522 7.07368 21.9541C6.69237 23.2394 7.50889 24.8472 8.26096 25.9697C8.80139 26.7763 9.84278 27.1013 10.7934 26.7597C12.2371 26.2411 13.8263 26.3833 15.1535 27.1497L16.4258 27.8844C16.6796 28.031 16.8322 28.3054 16.8228 28.5984C16.8073 29.0785 16.4266 29.2649 16.0524 29.4481L15.9819 29.4827C14.8306 30.052 13.8827 30.9409 13.2406 32.0533C12.5985 33.1658 12.3028 34.4313 12.3854 35.7131L12.414 36.1571C12.433 36.4498 12.2893 36.729 12.0402 36.8836C11.7951 37.0359 11.4662 37.037 11.2234 36.8968L9.9511 36.1621C8.58728 35.3744 7.66295 34.0295 7.41524 32.4719C7.31733 31.8565 6.94549 31.3185 6.39509 30.9958C1.6531 28.2156 -0.771258 23.1189 0.218761 18.0113C0.667359 15.6971 1.79036 13.5823 3.48798 11.8368C2.69769 10.5494 1.62681 9.44524 0.363874 8.62088C0.111763 8.45631 -0.0258184 8.1634 0.0086491 7.86426C0.0430444 7.56513 0.243491 7.31109 0.526384 7.20811C3.12818 6.26081 6.01392 6.8438 8.03914 8.68393C9.68595 7.93363 11.5397 7.40376 13.5865 7.10016C14.2 7.00915 14.8099 6.93636 15.4158 6.88176C15.3099 4.86428 14.5981 2.89015 13.3849 1.27206C13.2042 1.0311 13.1752 0.708843 13.3098 0.439485C13.4444 0.170128 13.7197 0 14.0208 0ZM18.8654 21.8991C19.6206 21.9133 20.416 21.8939 21.2453 21.8403C20.4797 22.7833 19.4965 23.5125 18.3733 23.9707C18.5994 23.2979 18.7638 22.606 18.8654 21.8991ZM6.50631 9.48112C5.85852 9.86353 5.24955 10.2861 4.68048 10.7483C4.10756 9.86674 3.41892 9.06444 2.63692 8.36576C4.01222 8.26469 5.38623 8.65664 6.50631 9.48112ZM21.0374 6.90848C19.7158 6.77109 18.3698 6.72816 17.0023 6.77998C16.9072 5.02601 16.4159 3.30103 15.5797 1.75888C18.19 2.33218 20.3116 4.31435 21.0374 6.90848ZM30.3622 15.2594C30.4391 15.2828 30.517 15.2939 30.5935 15.2939C30.9343 15.2939 31.2495 15.0728 31.3538 14.7298L31.3547 14.727C31.4823 14.307 31.2448 13.8643 30.8247 13.7367C30.4044 13.609 29.9604 13.8475 29.8327 14.2677C29.7051 14.6877 29.9421 15.1317 30.3622 15.2594Z"
  />
</svg>
