<svg viewBox="0 0 36 36" fill="currentColor">
  <path
    fill-rule="evenodd"
    clip-rule="evenodd"
    d="M36 8.0772C36 3.6234 32.3767 0 27.9229 0H19.3581C18.9309 0 18.5846 0.346294 18.5846 0.773449C18.5846 1.2006 18.9309 1.5469 19.3581 1.5469H27.9229C31.5237 1.5469 34.4531 4.47637 34.4531 8.0772C34.4531 9.34847 33.4942 10.3994 32.2618 10.5461C28.2933 6.75854 20.8413 3.71706 15.4428 3.71706H12.9461C5.80767 3.71699 0 9.52475 0 16.6633C0 18.9719 0.474891 21.1996 1.41145 23.2847C2.31279 25.2915 3.59508 27.0683 5.22246 28.5658C6.84991 30.0633 8.72705 31.1935 10.8018 31.9251C12.5262 32.5333 14.3169 32.8393 16.1421 32.8393C16.5858 32.8393 17.0317 32.8208 17.479 32.7846C18.0744 33.7246 19.0962 35.0114 20.493 35.59C21.2185 35.8905 21.9713 36.0001 22.6837 36C24.5422 35.9999 26.1239 35.2544 26.2146 35.2108C26.5653 35.0423 26.7363 34.6396 26.6139 34.2704C26.5825 34.1753 25.9296 32.2458 24.4647 30.8677C25.9296 29.4896 26.5825 27.5601 26.6139 27.465C26.7363 27.0958 26.5653 26.6931 26.2146 26.5246C26.0891 26.4643 23.1115 25.0607 20.4929 26.1454C19.1821 26.6884 18.2015 27.8552 17.5937 28.7737L12.848 26.4009C11.9777 25.9657 11.3216 25.2449 10.9688 24.3826C10.9627 24.3496 10.9545 24.3167 10.9439 24.2839C10.9264 24.2295 10.9034 24.1784 10.8758 24.131C10.7454 23.7373 10.6764 23.3184 10.6764 22.887C10.6764 21.6517 11.2495 20.5477 12.1438 19.8269C12.1767 19.8051 12.2079 19.7807 12.2372 19.754C12.8714 19.2734 13.6555 18.9808 14.5057 18.9596C14.6388 19.9814 15.0304 20.9897 15.6409 21.862C16.426 22.9836 17.5436 23.8297 18.7879 24.2444C18.869 24.2715 18.9515 24.2843 19.0326 24.2843C19.3564 24.2843 19.6582 24.0793 19.7662 23.7553C19.9014 23.35 19.6824 22.9119 19.2771 22.7769C17.6168 22.2234 16.3547 20.6759 16.065 18.9391C16.0823 18.9402 16.0996 18.9418 16.1169 18.9418C16.1899 18.9418 16.2631 18.9315 16.3341 18.9108C17.4354 18.8493 18.5089 18.7286 19.5535 18.5489C20.0636 20.4735 21.7905 21.9503 23.2516 22.6808C23.3626 22.7364 23.4806 22.7627 23.5968 22.7627C23.8805 22.7627 24.1537 22.606 24.2892 22.3349C24.4803 21.9528 24.3254 21.4883 23.9433 21.2972C22.7297 20.6904 21.4654 19.552 21.0744 18.2409C22.2804 17.9587 23.4447 17.5936 24.5652 17.1463C25.0819 18.6495 26.5045 19.7192 28.162 19.7192C28.5892 19.7192 28.9356 19.373 28.9356 18.9458C28.9356 18.5187 28.5893 18.1724 28.1621 18.1724C27.1351 18.1724 26.26 17.4785 25.9903 16.5217C26.8928 16.0895 27.7643 15.6003 28.6034 15.0544C29.9258 14.1941 31.1656 13.199 32.2955 12.0965C34.3662 11.9282 36 10.1905 36 8.0772ZM9.12962 22.8869C9.12962 23.2627 9.1672 23.6316 9.23972 23.9894C7.26222 24.4605 5.17523 24.3037 3.26449 23.5337C2.14994 21.4371 1.54691 19.0775 1.54691 16.6633C1.54691 14.1734 2.34932 11.8674 3.70912 9.99024C3.85506 11.8332 4.44835 13.6323 5.44787 15.2084C6.6293 17.0715 8.33598 18.5528 10.3315 19.4675C9.57975 20.4052 9.12962 21.5945 9.12962 22.8869ZM6.97285 25.8021C6.16123 25.8021 5.34958 25.7152 4.55174 25.5423C5.06524 26.2157 5.63934 26.8472 6.26994 27.4274C9.20253 30.1258 13.138 31.5132 17.1084 31.2598V30.2604L12.1564 27.7844C11.1095 27.261 10.285 26.441 9.76265 25.4537C8.84702 25.6863 7.90994 25.8021 6.97285 25.8021ZM11.5903 18.3181C7.49252 16.7671 4.87881 12.6252 5.25651 8.25521C7.28521 6.3982 9.98572 5.26375 12.9462 5.26375H14.6082C12.2684 8.9722 12.2692 13.7033 14.6089 17.4114H14.605C13.492 17.4114 12.4555 17.7453 11.5903 18.3181ZM16.4536 17.3539C13.7117 13.8001 13.7165 8.84906 16.4695 5.30052C21.2481 5.63267 27.3185 8.1765 30.8473 11.3431C29.8907 12.2351 28.855 13.0453 27.76 13.7577C24.4992 15.8791 20.703 17.0854 16.4536 17.3539ZM18.6551 29.991C19.0587 29.3155 19.9369 28.0501 21.0848 27.5745C22.4225 27.0205 23.9852 27.3708 24.8606 27.6574C24.5095 28.3963 23.8305 29.5589 22.8007 30.2156C22.578 30.3577 22.4431 30.6036 22.4431 30.8677C22.4431 31.1319 22.578 31.3778 22.8007 31.5198C23.8305 32.1766 24.5096 33.3393 24.8606 34.0779C23.9847 34.3648 22.4219 34.7147 21.0849 34.1609C19.9369 33.6852 19.0588 32.42 18.6551 31.7443V29.991ZM20.2134 11.9394C20.2828 11.9587 20.3527 11.9679 20.4213 11.9679C20.7599 11.9679 21.0708 11.7438 21.166 11.4018L21.1667 11.3991C21.2814 10.9875 21.0403 10.5624 20.6288 10.4478C20.2178 10.3333 19.7905 10.5752 19.6758 10.9867C19.5612 11.3983 19.8019 11.8247 20.2134 11.9394Z"
  />
</svg>
