<svg viewBox="0 0 36 36" fill="currentColor">
  <path d="M25.4694 28.2507C25.4694 29.3758 26.3883 30.2912 27.5179 30.2912C29.4216 30.2912 30.9704 28.7484 30.9704 26.8522V26.1265C30.9704 24.0898 32.1972 22.2849 34.0958 21.5284L34.9582 21.1848C35.3476 21.0297 35.7898 21.2184 35.9455 21.6063C36.1014 21.9944 35.9119 22.4347 35.5224 22.5899L34.66 22.9335C33.3416 23.4588 32.4897 24.7121 32.4897 26.1265V26.8522C32.4897 29.5829 30.2594 31.8044 27.5179 31.8044C25.8112 31.8044 24.3805 30.6046 24.0315 29.0072L21.2573 29.0066L21.2603 29.1362C21.3592 32.1033 23.8133 34.4868 26.8159 34.4868H30.326C30.7455 34.4868 31.0856 34.8255 31.0856 35.2434C31.0856 35.6613 30.7456 36 30.326 36H26.8159C22.9322 36 19.7692 32.8684 19.7381 29.0073L17.0438 29.0066L17.0419 29.1575C16.9313 32.9493 13.8001 36 9.96698 36H6.45679C6.03727 36 5.69716 35.6613 5.69716 35.2434C5.69716 34.8255 6.03727 34.4868 6.45679 34.4868H9.96698C13.0128 34.4868 15.4944 32.034 15.5254 29.0072L12.7514 29.0072C12.4023 30.6046 10.9717 31.8044 9.26494 31.8044C6.52343 31.8044 4.29308 29.5829 4.29308 26.8522V26.1265C4.29308 24.7121 3.44119 23.4588 2.12275 22.9335L1.26043 22.5899C0.870875 22.4347 0.681451 21.9944 0.837244 21.6063C0.993038 21.2183 1.43507 21.0297 1.8247 21.1848L2.68702 21.5284C4.58561 22.2849 5.81235 24.0897 5.81235 26.1265V26.8522C5.81235 28.7484 7.36117 30.2912 9.26494 30.2912C10.3945 30.2912 11.3135 29.3758 11.3135 28.2507V24.5982C11.1061 24.6458 10.8906 24.6718 10.669 24.6718C9.08885 24.6718 7.80327 23.3914 7.80327 21.8174C7.80327 20.7748 8.36775 19.8613 9.20797 19.3632C9.21435 17.6635 9.399 15.9882 9.75105 14.3603C8.69098 14.2135 7.71434 13.7298 6.93322 12.9517C5.75261 11.7758 5.24021 10.0996 5.56229 8.46791C5.88444 6.83619 6.99592 5.47816 8.53556 4.83502L18.0977 0.840947C18.106 0.837431 18.1144 0.834074 18.1229 0.830877C18.1435 0.823122 18.1642 0.816345 18.1851 0.810478C18.1912 0.808836 18.1978 0.807107 18.2043 0.805467C18.2299 0.798908 18.2555 0.793835 18.2813 0.790085C18.2894 0.789251 18.2973 0.788255 18.3052 0.787381C18.3294 0.78424 18.3539 0.78264 18.3786 0.782227C18.3872 0.782616 18.3955 0.782621 18.4039 0.78276C18.4283 0.782606 18.4532 0.78421 18.4779 0.787027C18.4856 0.788381 18.4934 0.78938 18.5012 0.790498C18.5273 0.793834 18.5529 0.798908 18.5783 0.805306C18.6149 0.814711 18.6506 0.82649 18.6852 0.840947L18.5977 0.810478C18.6186 0.816345 18.6393 0.823122 18.6598 0.83081L18.6852 0.840947L28.2472 4.83509C29.7869 5.47816 30.8984 6.83626 31.2205 8.46798C31.5427 10.0996 31.0302 11.7759 29.8497 12.9517C29.0686 13.7298 28.0919 14.2135 27.0311 14.3607C27.3839 15.9882 27.5685 17.6635 27.5749 19.3632C28.4151 19.8613 28.9795 20.7748 28.9795 21.8174C28.9795 23.3913 27.694 24.6718 26.1138 24.6718C25.8922 24.6718 25.6767 24.6458 25.4694 24.5982V28.2507ZM13.1045 23.3195C13.0224 23.451 12.9299 23.575 12.8282 23.6911C12.8311 23.7177 12.8327 23.7447 12.8327 23.772V27.4941H23.9501V23.686C23.8634 23.5866 23.7836 23.4812 23.7112 23.3705L18.5756 24.6493C18.4528 24.6798 18.3215 24.6792 18.1991 24.6473C18.198 24.6469 13.1045 23.3195 13.1045 23.3195ZM10.669 20.4763C9.92658 20.4763 9.32254 21.0779 9.32254 21.8174C9.32254 22.557 9.92658 23.1586 10.669 23.1586C11.4115 23.1586 12.0155 22.557 12.0155 21.8174C12.0155 21.0779 11.4115 20.4763 10.669 20.4763ZM26.1138 20.4763C25.3714 20.4763 24.7674 21.0779 24.7674 21.8175C24.7674 22.557 25.3714 23.1586 26.1138 23.1586C26.8563 23.1586 27.4603 22.557 27.4603 21.8175C27.4603 21.078 26.8563 20.4763 26.1138 20.4763ZM18.3914 2.53519C14.9854 5.52699 12.5998 9.4175 11.4698 13.7063C11.4641 13.7919 11.4427 13.8737 11.4092 13.9493C10.9984 15.5743 10.7692 17.2552 10.7323 18.9646C12.2833 18.9984 13.5348 20.2646 13.5348 21.8174L13.5335 21.8671L17.6318 22.9351V15.524C17.6318 15.1062 17.9719 14.7674 18.3914 14.7674C18.811 14.7674 19.1511 15.1062 19.1511 15.524V22.9461L23.2509 21.9253C23.2495 21.8894 23.2481 21.8536 23.2481 21.8174C23.2481 20.2646 24.4996 18.9984 26.0505 18.9646C26.0137 17.2557 25.7846 15.5753 25.3759 13.9504C25.3406 13.8749 25.3189 13.7925 25.3119 13.7064C24.183 9.41747 21.7974 5.52694 18.3914 2.53519ZM15.049 3.75504L9.12317 6.23047C8.03524 6.68493 7.28071 7.60679 7.0531 8.75983C6.82542 9.91288 7.17333 11.0507 8.00754 11.8816C8.58835 12.4602 9.32453 12.8049 10.1215 12.8797C11.0737 9.52598 12.7498 6.4134 15.049 3.75504ZM21.7332 3.75425C24.0328 6.41277 25.7091 9.52562 26.6616 12.8789C27.4577 12.805 28.1945 12.4603 28.7755 11.8817C29.6097 11.0508 29.9575 9.91295 29.7299 8.7599C29.5022 7.60686 28.7477 6.68493 27.6598 6.23054L21.7332 3.75425Z" />
</svg>
