<svg viewBox="0 0 35 39" fill="currentColor">
  <path d="M19.5491 0.0176198C19.6032 0.0289491 20.8847 0.306929 22.0675 1.26834C23.0872 2.09718 24.2137 3.57944 24.0902 6.04187C24.9847 6.31557 26.6077 6.92052 28.3462 8.09734C30.7177 9.70265 33.7614 12.7193 34.7942 17.9747C34.7971 17.9895 34.7996 18.0044 34.8017 18.0193C34.8028 18.027 34.8053 18.0448 34.8089 18.0721L34.823 18.1815C34.9078 18.8619 35.1915 21.485 34.7919 23.3799C34.7466 23.595 34.618 23.7829 34.4349 23.902C34.2519 24.021 34.0292 24.0611 33.8167 24.0138C33.7968 24.0093 31.7195 23.5581 29.0608 23.699C26.8996 23.8136 23.9354 24.3531 21.5278 26.1978C22.062 26.7403 22.6069 27.6428 22.6465 29.0816C22.6526 29.3044 22.5693 29.5203 22.4156 29.68C22.2619 29.8396 22.0507 29.9298 21.8302 29.9298L18.317 29.9293L18.317 35.9148C18.317 36.3831 18.694 36.764 19.1574 36.764C19.6208 36.764 19.9978 36.3831 19.9978 35.9148V34.6183C19.9978 33.0005 21.3004 31.6844 22.9016 31.6844H24.3775C24.8286 31.6844 25.1943 32.0539 25.1943 32.5097C25.1943 32.9655 24.8286 33.335 24.3775 33.335H22.9016C22.2012 33.335 21.6315 33.9107 21.6315 34.6183V35.9148C21.6315 37.2933 20.5216 38.4146 19.1574 38.4146C17.7932 38.4146 16.6833 37.2933 16.6833 35.9148L16.683 29.9293L13.17 29.9298C12.9494 29.9298 12.7383 29.8396 12.5844 29.6798C12.4307 29.5201 12.3474 29.3042 12.3535 29.0815C12.3942 27.6025 12.9687 26.6903 13.5169 26.1531C11.5905 24.4702 9.0591 23.5743 5.97688 23.4871C3.32765 23.412 1.25073 23.9957 1.23009 24.0016C1.01266 24.0636 0.779117 24.0322 0.585601 23.9143C0.392159 23.7964 0.255227 23.6029 0.208073 23.3796C-0.244826 21.2322 0.180004 18.1493 0.198271 18.0191C0.20035 18.0042 0.202875 17.9892 0.205846 17.9744C0.6782 15.5705 1.61051 13.4227 2.97656 11.5908L2.98294 11.5823C3.13837 11.3795 6.63243 6.87543 10.9063 5.96361C10.8102 3.548 11.9237 2.08825 12.9325 1.26819C14.1153 0.306854 15.3969 0.028874 15.4509 0.0175448C15.8142 -0.0593593 16.1831 0.121834 16.3486 0.457586C16.5142 0.793413 16.4347 1.19969 16.1553 1.44668C16.1357 1.46387 16.1169 1.4812 16.0985 1.4986C15.6883 1.88838 15.8307 2.36323 15.8841 2.49948C15.9993 2.79322 16.2902 3.10706 16.7611 3.10706H18.2389C18.7099 3.10706 19.0008 2.79322 19.1159 2.49948C19.1694 2.36323 19.3119 1.88838 18.9014 1.49853C18.8832 1.48127 18.8643 1.46394 18.8448 1.44676C18.5653 1.19977 18.4859 0.793413 18.6514 0.457661C18.8168 0.121909 19.1857 -0.0592092 19.5491 0.0176198ZM20.8103 2.37756C20.7873 2.6214 20.7291 2.86674 20.6347 3.10766C20.2415 4.11004 19.3011 4.75776 18.2389 4.75776H16.7611C15.6989 4.75776 14.7585 4.11004 14.3653 3.10766C14.2709 2.86674 14.2128 2.6214 14.1897 2.37756C14.0974 2.44299 14.005 2.51359 13.9137 2.58974C12.8012 3.51822 12.3585 4.84802 12.598 6.54216C12.6295 6.76499 12.5696 6.99113 12.4321 7.16819C12.2947 7.34526 12.0916 7.45795 11.8699 7.48016C7.98644 7.86873 4.39154 12.4428 4.27711 12.59C3.067 14.2144 2.23799 16.1261 1.81286 18.2722C1.78286 18.4984 1.52623 20.5139 1.68432 22.2039C2.60519 22.02 4.15384 21.7896 5.97168 21.8359C9.85284 21.9348 13.1105 23.2646 15.3926 25.6816C15.587 25.8875 15.6774 26.1752 15.6076 26.4508C15.5383 26.7245 15.3496 26.9383 15.0843 27.0258C14.9732 27.0733 14.3756 27.3668 14.111 28.2791H20.8891C20.6246 27.3668 20.027 27.0733 19.9158 27.0258C19.6425 26.9357 19.4504 26.7116 19.387 26.4278C19.3233 26.1419 19.4288 25.8483 19.6407 25.6482C21.9283 23.4884 25.1722 22.2436 29.0218 22.0481C30.8512 21.9551 32.403 22.1162 33.3113 22.2505C33.4786 20.5516 33.2177 18.5014 33.1871 18.2721C32.4419 14.5089 30.5072 11.5469 27.437 9.46864C25.1382 7.91255 23.0674 7.47168 23.0468 7.46741C22.6235 7.37985 22.341 6.97432 22.402 6.54216C22.6415 4.84802 22.1989 3.51822 21.0863 2.58974C20.9951 2.51359 20.9026 2.44299 20.8103 2.37756ZM19.7323 16.6712C21.3053 17.2074 22.7625 18.575 23.276 19.9969C23.4307 20.4251 23.2125 20.8989 22.7887 21.0551C22.6963 21.0892 22.6017 21.1053 22.5088 21.1053C22.1754 21.1053 21.8623 20.8976 21.7414 20.5627C21.3974 19.6105 20.3093 18.6099 19.21 18.2352C18.7826 18.0895 18.5529 17.6212 18.6972 17.1894C18.8414 16.7575 19.3048 16.5254 19.7323 16.6712ZM16.4449 17.1894C16.5891 17.6212 16.3595 18.0895 15.932 18.2352C14.8328 18.6099 13.7446 19.6105 13.4006 20.5627C13.2797 20.8976 12.9666 21.1053 12.6332 21.1053C12.5402 21.1053 12.4457 21.0892 12.3533 21.0551C11.9295 20.8988 11.7113 20.4251 11.866 19.9969C12.3795 18.575 13.8368 17.2074 15.4098 16.6712C15.8372 16.5257 16.3007 16.7574 16.4449 17.1894ZM21.251 13.6198C22.824 14.156 24.2812 15.5236 24.7948 16.9454C24.9495 17.3736 24.7313 17.8473 24.3075 18.0037C24.2151 18.0378 24.1205 18.0539 24.0276 18.0539C23.6942 18.0539 23.3811 17.8461 23.2602 17.5113C22.9162 16.559 21.828 15.5585 20.7287 15.1838C20.3013 15.0381 20.0716 14.5699 20.2159 14.138C20.3601 13.7061 20.8236 13.4739 21.251 13.6198ZM14.9261 14.138C15.0703 14.5699 14.8407 15.0381 14.4132 15.1838C13.3141 15.5585 12.2258 16.5591 11.8819 17.5113C11.761 17.8461 11.4479 18.0539 11.1145 18.0539C11.0215 18.0539 10.927 18.0378 10.8345 18.0037C10.4108 17.8474 10.1926 17.3736 10.3473 16.9454C10.8608 15.5235 12.3181 14.156 13.891 13.6198C14.3187 13.474 14.7819 13.7061 14.9261 14.138ZM22.7699 10.5683C24.3428 11.1045 25.8 12.4721 26.3136 13.894C26.4683 14.3222 26.2501 14.796 25.8263 14.9523C25.7339 14.9864 25.6393 15.0025 25.5464 15.0025C25.2129 15.0025 24.8999 14.7947 24.779 14.4599C24.435 13.5076 23.3468 12.5071 22.2476 12.1324C21.8202 11.9867 21.5905 11.5184 21.7348 11.0865C21.879 10.6547 22.3424 10.4225 22.7699 10.5683ZM13.4073 11.0865C13.5515 11.5184 13.3219 11.9867 12.8944 12.1324C11.7953 12.5071 10.707 13.5076 10.3631 14.4599C10.2422 14.7947 9.92911 15.0025 9.59569 15.0025C9.50272 15.0025 9.40819 14.9864 9.31574 14.9523C8.89195 14.796 8.6737 14.3223 8.82845 13.894C9.34202 12.4721 10.7993 11.1045 12.3722 10.5683C12.8 10.4225 13.2631 10.6547 13.4073 11.0865ZM19.587 5.94223C20.0203 6.06895 20.2703 6.52528 20.1449 6.96307L20.1441 6.96584C20.0406 7.3271 19.7142 7.56194 19.3598 7.56194C19.2846 7.56194 19.2082 7.55136 19.1323 7.52915C18.699 7.40243 18.4494 6.94476 18.5748 6.50689C18.7002 6.0691 19.1535 5.81566 19.587 5.94223ZM15.9518 5.94223C16.3851 6.06895 16.6351 6.52528 16.5097 6.96307L16.5089 6.96584C16.4054 7.3271 16.079 7.56194 15.7246 7.56194C15.6494 7.56194 15.573 7.55136 15.4971 7.52915C15.0637 7.40243 14.8142 6.94476 14.9396 6.50689C15.065 6.0691 15.5184 5.81566 15.9518 5.94223Z" />
</svg>
