<svg viewBox="0 0 25 26" fill="currentColor">
  <path
    fill-rule="evenodd"
    clip-rule="evenodd"
    d="M23.39 0H9.21047C9.15948 0.00024464 8.97145 0.00831778 8.77217 0.0986879C8.61736 0.0639001 8.45678 0.0452585 8.29228 0.0452585C7.276 0.0452585 6.4063 0.746496 6.15099 1.69042H5.20013C4.72802 1.69042 4.34388 2.07455 4.34388 2.54666V2.68234H1.51472C0.679513 2.68234 0 3.36185 0 4.19705V23.5365C0 24.3717 0.679464 25.0512 1.51472 25.0512H15.0699C15.8229 25.0512 16.449 24.4989 16.5651 23.7783H23.5151C23.5738 23.7783 23.6313 23.7687 23.6856 23.7506C24.4424 23.6103 25 22.949 25 22.1683V1.61003C25 0.722276 24.2778 0 23.39 0ZM6.6138 2.76679C6.90684 2.76679 7.146 2.53237 7.15192 2.23939C7.16429 1.62304 7.67589 1.12163 8.29238 1.12163C8.90887 1.12163 9.42042 1.62304 9.43285 2.23939C9.43872 2.53237 9.67793 2.76679 9.97096 2.76679H11.1644V4.00012H5.4203V2.76679H6.6138ZM15.0699 23.9748C15.3116 23.9748 15.5082 23.7781 15.5082 23.5365H15.5083V4.197C15.5083 3.95535 15.3117 3.7587 15.07 3.7587H12.2408V4.12346C12.2408 4.649 11.8132 5.07653 11.2877 5.07653H5.297C4.77147 5.07653 4.34393 4.64895 4.34393 4.12346V3.7587H1.51472C1.27306 3.7587 1.07642 3.95535 1.07642 4.197V23.5365C1.07642 23.7781 1.27306 23.9748 1.51472 23.9748H15.0699ZM23.9236 22.1683C23.9236 22.4394 23.7207 22.6671 23.4518 22.6978C23.4421 22.6989 23.4325 22.7003 23.423 22.7019H16.5847V4.197C16.5847 3.3618 15.9051 2.68229 15.0699 2.68229H12.2407V2.55595C12.2407 2.07866 11.8524 1.69037 11.3751 1.69037H10.4336C10.3742 1.47053 10.281 1.26411 10.1608 1.07642H23.39C23.6842 1.07642 23.9236 1.31582 23.9236 1.61003V22.1683ZM13.1037 10.1389H8.86983C8.57259 10.1389 8.33162 9.89791 8.33162 9.60067C8.33162 9.30343 8.57259 9.06246 8.86983 9.06246H13.1037C13.4009 9.06246 13.6419 9.30343 13.6419 9.60067C13.6419 9.89791 13.4009 10.1389 13.1037 10.1389ZM13.1037 13.228H3.45075C3.15351 13.228 2.91254 12.987 2.91254 12.6897C2.91254 12.3925 3.15351 12.1515 3.45075 12.1515H13.1037C13.4009 12.1515 13.6419 12.3925 13.6419 12.6897C13.6419 12.987 13.4009 13.228 13.1037 13.228ZM8.86978 18.6735H13.2987C13.5959 18.6735 13.8369 18.4325 13.8369 18.1352C13.8369 17.838 13.5959 17.597 13.2987 17.597H8.86978C8.57254 17.597 8.33157 17.838 8.33157 18.1352C8.33157 18.4325 8.57254 18.6735 8.86978 18.6735ZM13.1037 21.7184H3.45075C3.15351 21.7184 2.91254 21.4774 2.91254 21.1802C2.91254 20.8829 3.15351 20.642 3.45075 20.642H13.1037C13.4009 20.642 13.6419 20.8829 13.6419 21.1802C13.6419 21.4774 13.4009 21.7184 13.1037 21.7184ZM4.43959 10.168C4.3065 10.168 4.17772 10.1187 4.07855 10.0289L3.15087 9.18958C2.93045 8.99014 2.91342 8.6498 3.11285 8.42938C3.31224 8.20901 3.65263 8.19193 3.87305 8.39136L4.39506 8.86366L5.90014 7.14477C6.0959 6.92112 6.43595 6.89857 6.6596 7.09438C6.8832 7.29019 6.90576 7.63024 6.70995 7.85384L4.84452 9.98431C4.7495 10.0928 4.61485 10.1586 4.47085 10.1671C4.46038 10.1677 4.44996 10.168 4.43959 10.168ZM4.07855 18.5663C4.17772 18.6561 4.3065 18.7054 4.43959 18.7054C4.44996 18.7054 4.46038 18.7051 4.47085 18.7045C4.61485 18.6961 4.7495 18.6302 4.84452 18.5217L6.71 16.3912C6.90581 16.1676 6.88325 15.8275 6.6596 15.6317C6.43595 15.4359 6.0959 15.4585 5.90014 15.6821L4.39506 17.4011L3.87305 16.9288C3.65263 16.7293 3.31224 16.7464 3.11285 16.9668C2.91342 17.1872 2.93045 17.5276 3.15087 17.727L4.07855 18.5663Z"
  />
</svg>
