<svg viewBox="0 0 380 320" fill="currentColor">
  <path
    fill-rule="evenodd"
    clip-rule="evenodd"
    d="m130 0c-10 0-19 4-24 11-20-22-57-8-57 21 0 4 4 8 8 8 5 0 8-4 8-8 0-9 8-16 16-16 9 0 16 7 16 16v29c0 5 4 8 9 8 4 0 8-3 8-8v-29c1-21 31-21 32 0 0 4 3 8 8 8 4 0 8-4 8-8 0-18-15-32-32-32zm181 60c22-24 59-24 61-24 4 0 8 3 8 8 0 33-11 47-20 58-6 8-11 14-11 24 0 0 0 18 0 18 1 67-46 130-110 155-111 47-240-36-239-155v-23c0-15 12-26 26-26h73c34 0 60 5 78 15 17 9 25 20 32 30 10 14 25 32 41 32 16 0 28-13 28-28l0-18c0-10-6-16-13-23-10-12-23-26-23-59 0-5 4-8 8-8 2 0 39 0 61 24zm-295 84c0 84 70 152 156 152 27 0 53-7 76-18-95 33-200-40-199-140v-27h-23c-5 0-10 4-10 10v23zm330-50 0 0c-6 8-13 17-13 32 5 77-55 144-134 144-74 0-134-59-134-132v-27h34c71 0 86 23 96 38l0 0c18 26 36 39 55 39 25 0 45-20 45-44v-18c-1-16-8-24-17-33-8-10-18-20-19-41 12 2 34 7 45 25 3 5 11 5 14 0 11-18 33-23 45-25-1 22-9 32-17 42zm-162 141h-24c-18 0-32-14-32-32v-23c0-5 3-8 8-8h24c18 0 32 14 32 31v24c0 5-4 8-8 8zm-40-47v15c0 9 7 16 16 16h16v-16c0-8-7-15-16-15h-16zm-38-30c4 0 8-3 8-8 0-4-4-8-8-8-11 1-11 16 0 16z"
  />
</svg>
